<?xml version="1.0" encoding="UTF-8" standalone="no"?>
<!-- Created with Inkscape (http://www.inkscape.org/) -->

<svg
   xmlns:dc="http://purl.org/dc/elements/1.1/"
   xmlns:cc="http://creativecommons.org/ns#"
   xmlns:rdf="http://www.w3.org/1999/02/22-rdf-syntax-ns#"
   xmlns:svg="http://www.w3.org/2000/svg"
   xmlns="http://www.w3.org/2000/svg"
   xmlns:sodipodi="http://sodipodi.sourceforge.net/DTD/sodipodi-0.dtd"
   xmlns:inkscape="http://www.inkscape.org/namespaces/inkscape"
   width="1949.8164mm"
   height="165.73784mm"
   viewBox="0 0 1949.8165 165.73784"
   version="1.1"
   id="svg324"
   inkscape:version="0.92.1 r15371"
   sodipodi:docname="sprite.svg">
  <defs
     id="defs318" />
  <sodipodi:namedview
     id="base"
     pagecolor="#ffffff"
     bordercolor="#666666"
     borderopacity="1.0"
     inkscape:pageopacity="0.0"
     inkscape:pageshadow="2"
     inkscape:zoom="0.49497475"
     inkscape:cx="7085.5143"
     inkscape:cy="173.50849"
     inkscape:document-units="mm"
     inkscape:current-layer="layer1"
     showgrid="false"
     fit-margin-top="0"
     fit-margin-left="0"
     fit-margin-right="0"
     fit-margin-bottom="0"
     inkscape:window-width="1360"
     inkscape:window-height="705"
     inkscape:window-x="-8"
     inkscape:window-y="-8"
     inkscape:window-maximized="1" />
  <metadata
     id="metadata321">
    <rdf:RDF>
      <cc:Work
         rdf:about="">
        <dc:format>image/svg+xml</dc:format>
        <dc:type
           rdf:resource="http://purl.org/dc/dcmitype/StillImage" />
        <dc:title></dc:title>
      </cc:Work>
    </rdf:RDF>
  </metadata>
  <g
     inkscape:label="Layer 1"
     inkscape:groupmode="layer"
     id="layer1"
     transform="translate(-2.38301,0.92083348)">
    <path
       d="M 80.32926,112.56179 77.70988,86.473872 H 29.63509 l -2.61937,26.087918 c -0.3175,2.98979 1.08479,5.90021 3.57187,7.56708 l 0.68792,0.44979 c 13.57313,9.0223 31.22083,9.0223 44.79396,0 l 0.68791,-0.44979 c 2.48709,-1.66687 3.88938,-4.57729 3.57188,-7.56708 z m -6.58813,3.06917 -0.68791,0.44979 c -11.7475,7.83166 -27.06688,7.83166 -38.81438,0 l -0.68791,-0.44979 c -0.82021,-0.55563 -1.29646,-1.53459 -1.19063,-2.51355 l 2.11667,-21.219578 h 38.31166 l 2.11667,21.219578 c 0.13229,0.97896 -0.3175,1.95792 -1.16417,2.51355 z m 2.19605,-84.613751 -5.23875,-2.910417 c -10.58334,-5.926667 -23.495,-5.926667 -34.07834,0 l -5.23875,2.910417 c -2.98979,1.666875 -4.60375,5.027083 -4.04812,8.41375 l 2.43417,14.684375 H 77.52468 L 79.9853,39.430959 c 0.55563,-3.386667 -1.05833,-6.746875 -4.04812,-8.41375 z m -1.27,7.540625 -1.69334,10.186458 H 34.34468 L 32.65134,38.557834 c -0.1852,-1.137709 0.34396,-2.248959 1.34938,-2.804584 l 5.23875,-2.910416 c 8.96937,-5.000625 19.87021,-5.000625 28.83958,0 l 5.23875,2.910416 c 0.97896,0.555625 1.53458,1.666875 1.34938,2.804584 z m -47.57209,92.630626 4.49792,-2.9898 10.795,16.19251 -4.49792,2.9898 z m 37.83542,13.25563 10.795,-16.19251 4.49792,2.98979 -10.795,16.19251 z m 38.84083,-49.371258 c -0.74083,-0.50271 -1.69333,-0.60854 -2.51354,-0.26458 l -11.19187,4.47146 -1.29646,-15.47813 3.862912,-46.16979 C 93.690722,25.540334 87.20843,14.057417 76.33405,8.6863752 l -2.14312,-1.058333 c -12.93813,-6.402917 -28.09875,-6.402917 -41.03688,0 l -2.11666,1.058333 C 20.16301,14.057417 13.68072,25.540334 14.71259,37.631792 l 3.86292,46.19625 -1.29646,15.47812 -11.19187,-4.47145 c -1.37584,-0.55563 -2.96334,0.10583 -3.51896,1.48166 -0.13229,0.3175 -0.18521,0.66146 -0.18521,1.00542 v 7.143748 c 0,3.30729 2.01083,6.29708 5.08,7.51417 l 8.46667,3.38666 -1.13771,13.44084 c -1.05833,12.70001 6.16479,24.65917 17.88583,29.6598 l 9.28688,3.96875 c 7.46125,3.175 15.92791,3.175 23.38916,0 l 9.28688,-3.96875 c 11.7475,-4.97417 18.970622,-16.93334 17.912292,-29.6598 l -1.13771,-13.44084 8.46667,-3.38666 c 3.069158,-1.21709 5.106458,-4.20688 5.079998,-7.51417 v -7.143748 c -0.0265,-0.89958 -0.44979,-1.74625 -1.19063,-2.24896 z M 15.87676,109.51908 9.47384,106.95262 c -1.03187,-0.39687 -1.69333,-1.40229 -1.69333,-2.51354 v -3.14854 l 8.09625,3.22792 z m 71.35812,-72.310621 -3.88937,46.619583 3.81,45.428958 c 0.87312,10.39812 -5.05354,20.16126 -14.65792,24.23584 l -9.28687,3.96875 c -6.11188,2.59292 -13.0175,2.59292 -19.15583,0 l -9.28688,-3.96875 C 25.16364,149.41826 19.26343,139.65512 20.13655,129.257 L 23.97301,83.828042 20.08364,37.208459 c -0.84667,-9.868959 4.445,-19.261667 13.335,-23.65375 l 2.14312,-1.058334 c 11.40354,-5.6356248 24.81792,-5.6356248 36.22146,0 l 2.11666,1.058334 c 8.89,4.392083 14.18167,13.758333 13.335,23.65375 z m 12.303132,67.257081 c 0,1.11125 -0.66146,2.09021 -1.69333,2.51354 l -6.40292,2.56646 v -4.97417 l 8.09625,-3.22791 z"
       id="car"
       inkscape:connector-curvature="0"
       style="stroke-width:0.26458332" />
    <path
       d="m 297.64113,15.976591 c -20.53167,-20.5316669 -53.92208,-20.5316669 -74.45375,0 -13.49375,13.49375 -18.38854,32.940625 -13.62604,50.852917 l -56.91188,56.911872 c -0.97896,0.97896 -1.53458,2.32833 -1.53458,3.73063 v 29.79208 c 0,2.91042 2.35479,5.26521 5.26521,5.26521 h 29.79208 c 1.40229,0 2.72521,-0.55563 3.73063,-1.53459 l 7.43479,-7.43479 c 0.97896,-0.97896 1.53458,-2.32833 1.53458,-3.73062 v -9.63084 h 9.63083 c 1.4023,0 2.72521,-0.55562 3.73063,-1.53458 l 7.43479,-7.43479 c 0.97896,-0.97896 1.53458,-2.32833 1.53458,-3.73063 v -9.63083 h 9.63084 c 1.40229,0 2.72521,-0.55562 3.73062,-1.53458 l 12.22375,-12.22375 c 17.91229,4.7625 37.35917,-0.13229 50.85292,-13.626042 20.53167,-20.584584 20.53167,-53.975 0,-74.506667 z m -7.43479,67.018957 c -11.37709,11.37708 -27.94,15.24 -43.23292,10.13354 -1.905,-0.635 -3.99521,-0.13229 -5.3975,1.27 l -12.91167,12.911672 h -12.7 c -2.91041,0 -5.2652,2.35479 -5.2652,5.2652 v 12.7 l -4.36563,4.36563 h -12.7 c -2.91042,0 -5.26521,2.35479 -5.26521,5.26521 v 12.7 l -4.36562,4.36562 H 161.6453 v -22.33083 l 57.57333,-57.573332 c 1.40229,-1.402292 1.905,-3.4925 1.27,-5.3975 -5.13292,-15.292917 -1.24354,-31.855834 10.13354,-43.232917 16.43063,-16.4306249 43.15354,-16.4306249 59.55771,0 16.43062,16.404167 16.43062,43.127083 0.0265,59.557707 z m -7.46125,-52.122915 c -8.20209,-8.202084 -21.56354,-8.202084 -29.79209,0 -8.20208,8.202083 -8.20208,21.563541 0,29.792083 8.20209,8.202083 21.56355,8.202083 29.79209,0 8.22854,-8.228542 8.22854,-21.59 0,-29.792083 z m -7.43479,22.330833 c -4.10105,4.101042 -10.795,4.101042 -14.89605,0 -4.10104,-4.101042 -4.10104,-10.795 0,-14.896042 4.10105,-4.101041 10.795,-4.101041 14.89605,0 4.10104,4.101042 4.10104,10.795 0,14.896042 z"
       id="door-key"
       inkscape:connector-curvature="0"
       style="stroke-width:0.26458332" />
    <path
       d="m 414.86666,69.027442 c -0.29104,3.624791 -2.16958,7.408338 -4.86833,9.842508 -0.92604,0.8202 -1.32292,2.11666 -1.03187,3.33375 l 1.37583,5.50333 c 0.29104,1.21708 1.24354,2.14312 2.46062,2.46062 l 12.09146,3.01625 c 1.66688,0.42334 3.22792,1.21709 4.60375,2.38125 1.42875,1.19063 3.54542,1.00542 4.7625,-0.42333 1.19063,-1.42875 1.00542,-3.54542 -0.42333,-4.7625 -2.19604,-1.82562 -4.63021,-3.09562 -7.3025,-3.75708 l -10.13354,-2.51354 -0.42334,-1.69334 c 2.61938,-2.91041 4.49792,-6.614585 5.26521,-10.451043 1.79917,-0.926042 3.12209,-2.69875 3.38667,-4.841875 l 0.74083,-5.847292 c 0.21167,-1.772708 -0.3175,-3.571875 -1.50812,-4.92125 -0.37042,-0.423333 -0.79375,-0.79375 -1.24354,-1.084792 l 0.1852,-3.571875 0.60855,-0.608541 c 1.74625,-1.852084 4.10104,-5.794375 0.37041,-11.482917 -1.77271,-2.69875 -5.3975,-5.926667 -12.7,-5.926667 -2.14312,0 -7.01146,0 -11.72104,2.963334 -13.89062,0.47625 -15.53104,7.963958 -15.53104,13.626041 0,1.11125 0.21167,3.201459 0.39687,4.947709 -0.5027,0.3175 -0.9525,0.714375 -1.34937,1.164166 -1.19063,1.349375 -1.74625,3.175 -1.53458,4.947709 l 0.74083,5.87375 c 0.26458,2.196041 1.66687,4.021666 3.73062,4.92125 0.7673,3.677708 2.51355,7.249583 4.97417,10.080633 l -0.50271,1.98437 -10.13354,2.51354 c -8.20208,2.06375 -13.94354,9.39271 -13.94354,17.85938 0,1.85208 1.50812,3.38666 3.38667,3.38666 h 47.625 c 1.85208,0 3.38666,-1.50812 3.38666,-3.38666 0,-1.87854 -1.50812,-3.36021 -3.36021,-3.36021 h -43.73562 c 1.16417,-3.86292 4.25979,-6.90563 8.33437,-7.9375 l 12.09146,-3.01625 c 1.21709,-0.29104 2.14313,-1.24354 2.46063,-2.46063 l 1.42875,-5.76791 c 0.29104,-1.19063 -0.0794,-2.43417 -0.97896,-3.28084 -2.61938,-2.48708 -4.36563,-6.085417 -4.65667,-9.657292 -0.13229,-1.74625 -1.64041,-2.725208 -3.41312,-2.725208 l -0.87313,-5.371042 c 0.97896,0 1.87854,-0.423333 2.54,-1.137708 0.635,-0.740833 0.92604,-1.693333 0.82021,-2.645833 -0.26458,-2.037292 -0.66146,-5.715 -0.66146,-6.905625 0,-3.4925 0,-6.799792 9.86896,-6.879167 0.68792,0 1.37583,-0.211667 1.93146,-0.635 3.20146,-2.301875 6.90562,-2.301875 8.67833,-2.301875 5.18584,0 6.58813,2.169583 7.09084,2.883958 1.37583,2.116667 0.8202,2.69875 0.42333,3.095625 l -1.45521,1.455209 c -0.58208,0.582083 -0.9525,1.375833 -0.97896,2.2225 l -0.37041,7.355416 c -0.0529,0.926042 0.0794,1.561042 0.71437,2.2225 0.635,0.661459 1.27,0.79375 2.19604,0.820209 l -0.44979,5.476875 c -1.79917,-0.07937 -3.25437,1.27 -3.38667,3.01625 z m 35.6923,-15.134167 h 20.24062 c 1.85209,0 3.38667,-1.508125 3.38667,-3.386667 0,-1.878541 -1.50813,-3.386666 -3.38667,-3.386666 h -20.24062 c -1.85209,0 -3.38667,1.508125 -3.38667,3.386666 0,1.878542 1.53458,3.386667 3.38667,3.386667 z M 497.81354,-0.0817245 H 369.59646 c -9.28688,0 -16.85396,7.5670825 -16.85396,16.8539575 v 87.709377 c 0,9.31334 7.56708,16.88042 16.85396,16.88042 h 49.90041 c 1.87854,0 3.38667,-1.50813 3.38667,-3.38667 0,-1.85208 -1.50813,-3.38666 -3.38667,-3.38666 h -49.90041 c -5.58271,0 -10.13355,-4.55084 -10.13355,-10.13355 V 26.905775 H 507.89417 V 93.10453 c 0,1.85208 1.50812,3.38667 3.38666,3.38667 1.85209,0 3.38667,-1.50813 3.38667,-3.38667 V 16.772233 c 0,-9.286875 -7.56708,-16.8539575 -16.85396,-16.8539575 z M 507.92062,20.1589 H 359.48937 v -3.386667 c 0,-5.582708 4.55084,-10.133541 10.13354,-10.133541 h 128.19063 c 5.58271,0 10.13354,4.550833 10.13354,10.133541 l -0.0265,3.386667 z m -10.10708,33.734375 c 1.85208,0 3.38667,-1.508125 3.38667,-3.386667 0,-1.878541 -1.50813,-3.386666 -3.38667,-3.386666 h -13.49375 c -1.85208,0 -3.38667,1.508125 -3.38667,3.386666 0,1.878542 1.50813,3.386667 3.38667,3.386667 z m 16.85396,53.975005 c 0,-2.83104 -2.09021,-4.78896 -5.10646,-4.78896 -1.69333,0 -4.60375,0.87313 -7.09083,2.30188 -3.30729,-6.95855 -8.70479,-13.12334 -12.56771,-15.0548 -2.56646,-1.27 -11.27125,-2.69875 -19.10292,-2.69875 -7.83166,0 -16.53645,1.42875 -19.10292,2.69875 -3.86291,1.93146 -9.26041,8.09625 -12.5677,15.0548 -2.51355,-1.42875 -5.3975,-2.30188 -7.09084,-2.30188 -1.27,0 -2.38125,0.3175 -3.25437,1.00542 -1.16417,0.87312 -1.82563,2.2225 -1.82563,3.78354 0,5.26521 4.07459,8.91646 4.55084,9.31333 0.37041,0.3175 0.79375,0.50271 1.21708,0.635 -1.61396,4.47146 -2.40771,9.44563 -2.40771,13.6525 0,5.02709 0.47625,13.62604 3.38667,18.01813 v 5.58271 c 0,3.78354 2.96333,6.74687 6.74687,6.74687 h 6.74688 c 3.78354,0 6.74687,-2.96333 6.74687,-6.74687 v -2.27542 c 4.07459,1.03187 10.42459,2.27542 16.85396,2.27542 6.42938,0 12.77938,-1.27 16.85396,-2.27542 v 2.27542 c 0,3.78354 2.96333,6.74687 6.74688,6.74687 h 6.77333 c 3.78354,0 6.74687,-2.96333 6.74687,-6.74687 v -5.58271 c 2.91042,-4.39209 3.38667,-12.99104 3.38667,-18.01813 0,-4.23333 -0.79375,-9.18104 -2.40771,-13.6525 0.42334,-0.13229 0.84667,-0.3175 1.21709,-0.635 0.47625,-0.39687 4.55083,-4.04812 4.55083,-9.31333 z M 454.71292,96.3589 c 1.27,-0.58208 8.46666,-1.98437 16.11312,-1.98437 7.64646,0 14.84313,1.42875 16.08667,1.98437 2.56646,1.27 8.49312,8.01688 10.84791,15.34584 -6.35,0.89958 -21.32541,2.91041 -26.93458,2.91041 -5.60917,0 -20.61104,-2.03729 -26.93458,-2.91041 2.32833,-7.32896 8.28145,-14.07584 10.82146,-15.34584 z m -19.05001,15.45167 c -0.21166,-0.21167 -0.55562,-0.55562 -0.92604,-1.13771 0.44979,0.21167 0.87313,0.44979 1.27,0.68792 -0.13229,0.15875 -0.23812,0.29104 -0.34396,0.44979 z m 11.53584,43.28583 h -6.74688 v -3.38666 h 6.74688 z m 53.975,0 h -6.74688 v -3.38666 h 6.74688 z m 1.56104,-10.10708 h -11.66812 c -0.37042,0 -0.71438,0.0529 -1.05834,0.15875 -0.10583,0.0265 -9.76312,3.20146 -19.18229,3.20146 -9.41917,0 -19.07646,-3.175 -19.18229,-3.20146 -0.10584,-0.0265 -0.23813,0 -0.34396,-0.0265 -0.23813,-0.0529 -0.47625,-0.15875 -0.71438,-0.15875 h -11.69458 c -0.87312,-2.01083 -1.82562,-6.6675 -1.82562,-13.49375 0,-1.08479 0.0794,-2.2225 0.21166,-3.36021 4.52438,0.1323 9.92188,1.66688 9.92188,3.36021 0,1.85209 1.50812,3.38667 3.38666,3.38667 1.87855,0 3.38667,-1.50813 3.38667,-3.38667 0,-8.255 -11.13896,-9.76312 -15.34583,-10.05416 0.37041,-1.24355 0.82021,-2.40771 1.34937,-3.4925 0,0 0.0265,0 0.0265,0 0.9525,0.13229 23.20396,3.41312 30.85042,3.41312 7.64646,0 29.89792,-3.25437 30.85042,-3.41312 0,0 0,0 0.0265,0 0.50271,1.08479 0.9525,2.24895 1.34938,3.4925 -4.20688,0.29104 -15.34583,1.79916 -15.34583,10.05416 0,1.85209 1.50812,3.38667 3.38666,3.38667 1.85209,0 3.38667,-1.50813 3.38667,-3.38667 0,-1.74625 5.34458,-3.22791 9.92187,-3.36021 0.1323,1.16417 0.21167,2.30188 0.21167,3.36021 -0.0794,6.85271 -1.03187,11.48292 -1.905,13.52021 z m 3.22792,-33.17875 c -0.10584,-0.15875 -0.21167,-0.29104 -0.3175,-0.44979 0.39687,-0.23813 0.82021,-0.47625 1.27,-0.68792 -0.34396,0.50271 -0.68792,0.87313 -0.9525,1.13771 z M 450.55896,74.1339 h 47.22812 c 1.85209,0 3.38667,-1.508125 3.38667,-3.386667 0,-1.878541 -1.50813,-3.386666 -3.38667,-3.386666 h -47.22812 c -1.85209,0 -3.38667,1.508125 -3.38667,3.386666 0,1.878542 1.53458,3.386667 3.38667,3.386667 z m 27.01396,53.975 h -13.49375 c -1.85209,0 -3.38667,1.50813 -3.38667,3.38667 0,1.87854 1.50812,3.38667 3.38667,3.38667 h 13.49375 c 1.85208,0 3.38666,-1.50813 3.38666,-3.38667 -0.0265,-1.87854 -1.53458,-3.38667 -3.38666,-3.38667 z"
       id="driver-license"
       inkscape:connector-curvature="0"
       style="stroke-width:0.26458332" />
    <path
       d="m 720.49822,39.085771 c 0,-2.460625 -0.71438,-4.947709 -2.32833,-7.011459 l -12.8323,-16.404166 c -2.14312,-2.725209 -5.42395,-4.1275 -8.67833,-4.1275 -1.93146,0 -3.91583,0.502708 -5.66208,1.5875 l -12.51479,7.77875 c -1.32292,0.846666 -3.57188,1.402291 -5.74146,1.402291 -1.69333,0 -3.33375,-0.343958 -4.41854,-0.873125 l -12.25022,-5.926666 c -1.98437,-0.9525 -4.18041,-1.349375 -6.40291,-1.349375 -3.175,0.02646 -6.40292,0.79375 -8.99584,2.592916 l -1.42875,1.005417 c -1.1377,-0.582083 -2.88395,-1.42875 -4.86833,-2.434167 -2.38125,-1.164166 -5.15937,-1.640416 -7.99042,-1.640416 -2.54,0 -5.08,0.396875 -7.32895,1.349375 l -8.33438,3.571875 c -1.34937,0.582083 -3.51896,0.978958 -5.66208,0.9525 -2.14313,0 -4.31271,-0.370417 -5.66209,-0.9525 l -8.36083,-3.571875 c -1.53458,-0.661459 -3.14854,-0.926042 -4.7625,-0.926042 -1.85208,0 -3.70417,0.370417 -5.42396,1.058333 -1.71979,0.687917 -3.30729,1.719792 -4.57729,3.148542 l -15.18708,17.039167 c -1.66688,1.878541 -2.51354,4.259791 -2.51354,6.588125 0,2.778125 1.19062,5.582708 3.4925,7.540625 l 14.18166,12.091458 -6.72041,7.01146 c -1.85209,1.93146 -2.77813,4.445 -2.77813,6.93208 0,2.64583 1.05833,5.31813 3.12208,7.27604 l 1.37584,1.29646 c 1.29646,1.21708 2.83104,1.98438 4.445,2.40771 -0.82021,1.48167 -1.24354,3.12208 -1.24354,4.7625 0,2.64583 1.05833,5.31812 3.12208,7.27604 v 0 l 1.37583,1.29646 c 1.95792,1.852076 4.47146,2.778116 6.95854,2.778116 1.34938,0 2.6723,-0.26458 3.9423,-0.79375 0.44979,1.79917 1.34937,3.4925 2.77812,4.86834 l 1.37583,1.29646 c 1.95792,1.85208 4.47146,2.77812 6.95855,2.77812 1.95791,0 3.91583,-0.58208 5.5827,-1.69333 0.50271,1.5875 1.34938,3.09562 2.61938,4.31271 l 1.37583,1.29645 c 1.93146,1.85209 4.47146,2.77813 6.95854,2.77813 2.64584,0 5.31813,-1.03188 7.3025,-3.09563 l 5.95313,-6.2177 8.06979,7.4877 c 1.93146,1.79917 4.41854,2.69875 6.87917,2.6723 2.69875,0 5.3975,-1.0848 7.38187,-3.20146 l 1.29646,-1.37584 c 1.11125,-1.19062 1.85208,-2.61937 2.24896,-4.10104 l 3.12209,2.88396 c 1.93145,1.79917 4.41854,2.67229 6.8527,2.67229 2.69875,0 5.42396,-1.08479 7.40834,-3.20146 l 1.27,-1.37583 c 1.48166,-1.5875 2.30187,-3.54542 2.56646,-5.55625 0.8202,0.21167 1.66687,0.34396 2.51354,0.34396 2.69875,0 5.42396,-1.08479 7.40833,-3.20146 l 1.29646,-1.37583 c 1.79917,-1.931456 2.69875,-4.392086 2.69875,-6.826246 0,-0.76729 -0.10583,-1.50813 -0.26458,-2.24896 2.2225,-0.29104 4.39208,-1.29646 6.05895,-3.06917 l 1.29646,-1.37583 c 1.79917,-1.93146 2.69875,-4.39208 2.69875,-6.82625 0,-2.67229 -1.08479,-5.3975 -3.20146,-7.35542 l -2.4077,-2.2225 21.7752,-24.07708 c 1.87855,-2.169583 2.77813,-4.974167 2.77813,-7.725833 z M 578.17884,81.366184 c -1.16417,0 -2.27542,-0.42333 -3.175,-1.24354 l -1.37583,-1.29646 c -0.9525,-0.89958 -1.40229,-2.09021 -1.42875,-3.30729 0,-1.13771 0.42333,-2.27542 1.27,-3.14854 l 13.78479,-14.393333 c 0.89958,-0.926042 2.09021,-1.402292 3.33375,-1.402292 1.13771,0 2.27542,0.423333 3.175,1.243542 l 1.34937,1.296458 c 0,0 1.4023,2.090205 1.4023,3.307295 0,0.92604 -0.29105,1.79916 -0.82021,2.59291 -0.0529,0.0529 -14.86959,15.50459 -14.86959,15.50459 -0.76729,0.55562 -1.69333,0.84666 -2.64583,0.84666 z m 11.00667,14.34042 c -0.89959,0.92604 -2.09021,1.40229 -3.33375,1.40229 -1.16417,0 -2.27542,-0.42333 -3.175,-1.24354 l -1.37584,-1.29646 v 0 c -0.92604,-0.89958 -1.40229,-2.09021 -1.40229,-3.30729 0,-1.13771 0.42334,-2.27542 1.24354,-3.14854 0,0 18.36209,-19.12938 18.52084,-19.31459 0.87312,-0.84666 2.01083,-1.27 3.175,-1.27 1.16416,0 2.27541,0.42334 3.175,1.24355 l 1.37583,1.29645 c 0.9525,0.89959 1.40229,2.09021 1.40229,3.3073 0,1.1377 -0.42333,2.27541 -1.27,3.14854 z m 15.05479,8.149166 c -0.89958,0.92604 -2.09021,1.40229 -3.30729,1.40229 -1.16417,0 -2.27542,-0.42334 -3.175,-1.24354 l -1.37584,-1.29646 c -0.9525,-0.89959 -1.40229,-2.09021 -1.40229,-3.307286 0,-1.03188 0.34396,-2.01084 1.00542,-2.83105 l 12.80583,-13.36145 c 0.87313,-0.7673 1.93146,-1.19063 3.06917,-1.19063 1.16417,0 2.27542,0.42333 3.175,1.24354 l 1.37583,1.29646 c 0.92604,0.89958 1.40229,2.09021 1.40229,3.30729 0,1.13771 -0.42333,2.27542 -1.27,3.14854 z m 24.31521,-1.4023 -7.75229,8.09625 c -0.89959,0.92605 -2.09021,1.4023 -3.33375,1.4023 -1.16417,0 -2.27542,-0.42334 -3.175,-1.24355 l -1.37584,-1.29645 c -0.92604,-0.89959 -1.40229,-2.09021 -1.40229,-3.3073 0,-1.1377 0.42333,-2.27541 1.27,-3.14854 l 7.75229,-8.096246 c 0.89959,-0.92604 2.09021,-1.40229 3.33375,-1.40229 1.13771,0 2.27542,0.42333 3.175,1.24354 l 1.37584,1.29646 c 0.92604,0.89958 1.40229,2.09021 1.40229,3.30729 -0.0265,1.137706 -0.42334,2.248956 -1.27,3.148536 z M 695.9978,80.466604 c 0,1.13771 -0.39687,2.2225 -1.21708,3.09562 l -1.29646,1.37584 c -0.89958,0.9525 -2.11667,1.45521 -3.36021,1.45521 -1.13771,0 -2.24896,-0.39688 -3.12208,-1.21709 l -21.66938,-20.05541 -3.75708,4.02166 23.20396,21.48417 c 0.97896,0.89958 1.45521,2.11667 1.45521,3.36021 0,1.13771 -0.39688,2.2225 -1.21709,3.09562 l -1.27,1.37584 c -0.89958,0.9525 -2.11666,1.4552 -3.3602,1.4552 -1.13771,0 -2.24896,-0.39687 -3.12209,-1.21708 l -21.69583,-20.02896 -3.75709,4.02167 19.23521,17.779996 c 0.92605,0.89958 1.4023,2.06375 1.4023,3.28083 0,1.13771 -0.39688,2.2225 -1.21709,3.09563 l -1.29646,1.37583 c -0.89958,0.9525 -2.11666,1.45521 -3.3602,1.45521 -1.13771,0 -2.24896,-0.39688 -3.12209,-1.21708 L 644.2453,90.732434 v 0 0 l -3.73063,4.02167 v 0 l 0.0794,0.0794 9.60438,8.863546 c 0.84667,0.87312 1.29646,2.01083 1.29646,3.14854 0,1.11125 -0.39688,2.2225 -1.21709,3.09562 l -1.29645,1.37584 c -0.89959,0.9525 -2.11667,1.4552 -3.36021,1.4552 -1.13771,0 -2.24896,-0.39687 -3.12209,-1.21708 l -8.36082,-7.75232 c 0.74083,-1.42875 1.1377,-2.98979 1.1377,-4.524376 0,-2.64583 -1.05833,-5.29166 -3.12208,-7.27604 l -1.37583,-1.29646 c -1.93146,-1.85208 -4.47146,-2.77812 -6.95854,-2.75166 -0.18521,0 -0.39688,0.0529 -0.58209,0.0529 0,-0.0529 0,-0.10583 0,-0.13229 0,-2.64583 -3.12208,-7.27604 -3.12208,-7.27604 l -1.37583,-1.29646 c -1.45521,-1.37583 -3.22792,-2.24896 -5.08,-2.59291 0.37041,-1.0848 0.60854,-2.19605 0.60854,-3.33375 0,-2.64584 -1.05834,-5.31813 -3.12209,-7.27605 l -1.37583,-1.29645 c -1.95792,-1.85209 -4.47146,-2.77813 -6.95854,-2.77813 -0.29104,0 -0.58208,0.0529 -0.87313,0.0794 -0.0794,-2.540003 -1.11125,-5.080003 -3.09562,-6.958545 v 0 L 597.467,53.849521 c -1.95792,-1.852084 -4.47146,-2.778125 -6.95855,-2.778125 -2.64583,0 -5.31812,1.031875 -7.3025,3.095625 l -3.25437,3.386666 -14.31396,-12.22375 c -1.03187,-0.899583 -1.56104,-2.116666 -1.56104,-3.360208 0,-1.058333 0.37042,-2.090208 1.13771,-2.936875 l 15.21354,-17.039167 c 0.60854,-0.687916 1.50812,-1.296458 2.54,-1.719791 1.05833,-0.423334 2.2225,-0.661459 3.33375,-0.661459 0.97896,0 1.87854,0.185209 2.59292,0.47625 l 8.36083,3.571875 c 2.35479,0.978959 5.08,1.402292 7.83167,1.402292 2.75166,0 5.47687,-0.423333 7.83166,-1.402292 l 8.33438,-3.571875 c 1.29646,-0.555625 3.22791,-0.899583 5.15937,-0.899583 2.14313,0 4.25979,0.423333 5.50334,1.058333 0.79375,0.396875 1.53458,0.767292 2.2225,1.11125 l -8.49313,5.979584 c -2.72521,1.931458 -4.20687,4.974166 -4.20687,8.069791 0,2.037292 0.635,4.1275 1.95791,5.87375 v 0 l 1.11125,1.508125 c 2.14313,2.831042 5.45042,4.28625 8.78417,4.312709 1.87854,0 3.78354,-0.47625 5.50333,-1.508125 l 5.08,-3.069167 c 1.03188,-0.635 2.59292,-1.031875 4.23334,-1.031875 1.905,0 3.83645,0.555625 4.97416,1.402292 l 14.07584,10.107083 c 3.12208,2.248958 8.22854,6.402917 11.05958,9.02229 l 16.29834,15.05479 c 0.97895,0.92604 1.48166,2.14313 1.48166,3.38667 z m 17.54188,-37.332708 -21.72229,23.997708 -9.8425,-9.101667 c -3.09563,-2.8575 -8.17563,-7.011458 -11.58875,-9.472083 L 656.3103,38.450771 c -2.38125,-1.693334 -5.31813,-2.434167 -8.20208,-2.434167 -2.46063,0 -4.94771,0.555625 -7.06438,1.825625 l -5.08,3.069167 c -0.76729,0.47625 -1.69333,0.714375 -2.64583,0.714375 -1.71979,0 -3.41313,-0.79375 -4.36563,-2.090209 l -1.11125,-1.508125 v 0 c -0.60854,-0.79375 -0.87312,-1.693333 -0.87312,-2.619375 0,-1.375833 0.635,-2.725208 1.87854,-3.598333 l 15.05479,-10.583333 c 1.29646,-0.9525 3.62479,-1.613959 5.82083,-1.5875 1.53459,0 2.9898,0.291041 3.99521,0.79375 l 12.25021,5.926666 c 2.09021,1.005417 4.445,1.402292 6.82625,1.42875 3.04271,-0.02646 6.13834,-0.687916 8.65188,-2.2225 l 12.51479,-7.77875 c 0.79375,-0.502708 1.74625,-0.767291 2.75167,-0.767291 1.69333,0 3.38666,0.767291 4.33916,2.010833 l 12.8323,16.404167 c 0.74083,0.9525 1.16416,2.275416 1.16416,3.65125 -0.0529,1.534583 -0.58208,3.069166 -1.50812,4.048125 z"
       id="handshake"
       inkscape:connector-curvature="0"
       style="stroke-width:0.26458332" />
    <path
       d="M 914.74018,1.7703571 H 775.56934 c -6.27062,0 -11.37708,5.106458 -11.37708,11.3770829 v 95.99084 c 0,6.27062 5.10646,11.37708 11.37708,11.37708 h 139.17084 c 6.27062,0 11.37708,-5.10646 11.37708,-11.37708 V 13.14744 c 0,-6.2706249 -5.10646,-11.3770829 -11.37708,-11.3770829 z m 5.97958,107.3679229 c 0,3.30729 -2.67229,5.97958 -5.97958,5.97958 H 775.56934 c -3.30729,0 -5.97958,-2.67229 -5.97958,-5.97958 V 13.14744 c 0,-3.3072909 2.67229,-5.9795829 5.97958,-5.9795829 h 139.17084 c 3.30729,0 5.97958,2.672292 5.97958,5.9795829 z m -95.43521,-31.141462 -9.81604,-5.02709 v -1.03187 c 4.39208,-2.40771 7.48771,-6.35 9.2075,-11.77396 2.61937,-1.37583 4.28625,-4.10104 4.28625,-7.11729 v -2.69875 c 0,-2.48708 -1.16417,-4.81542 -3.09563,-6.35 -1.69333,-10.21292 -8.81062,-15.37229 -21.19312,-15.37229 -0.58208,0 -1.16417,0.0265 -1.71979,0.0529 -2.32834,0.18521 -5.74146,0 -8.70479,-1.98438 -1.11125,-0.74083 -1.93146,-1.45521 -2.46063,-2.14312 -0.89958,-1.16417 -2.43417,-1.56104 -3.78354,-1.00542 -1.34938,0.55563 -2.14313,1.905 -1.98438,3.36021 0.10584,1.00542 0.29105,2.19604 0.52917,3.46604 0.52917,2.61938 0.52917,2.61938 -0.21167,4.20688 -0.26458,0.60854 -0.60854,1.32291 -1.00541,2.30187 -0.89959,2.19604 -1.53459,4.57729 -1.905,7.14375 -1.905,1.53458 -3.06917,3.83646 -3.06917,6.29708 v 2.69875 c 0,3.01625 1.66688,5.74146 4.28625,7.11729 1.71979,5.42396 4.81542,9.39271 9.2075,11.77396 v 1.00542 l -10.16,5.02708 c -3.70417,2.03729 -6.0325,5.90021 -6.0325,10.13354 v 3.57188 c 0,2.16958 0,7.24958 26.9875,7.24958 26.9875,0 26.9875,-5.08 26.9875,-7.24958 v -3.36021 c 0.0265,-4.36563 -2.40771,-8.30792 -6.35,-10.29229 z m 0.97896,13.07041 c -1.69333,1.03188 -8.54604,2.46063 -21.59,2.46063 -13.04396,0 -19.89667,-1.42875 -21.59,-2.46063 v -2.96333 c 0,-2.24896 1.21708,-4.33917 3.12208,-5.34458 l 10.39813,-5.13292 c 1.61396,-0.79375 2.67229,-2.48708 2.67229,-4.28625 v -4.86833 l -1.64042,-0.71438 c -4.10104,-1.77271 -6.74687,-5.13291 -8.14916,-10.29229 l -0.39688,-1.42875 -1.42875,-0.44979 c -1.13771,-0.34396 -1.93146,-1.40229 -1.93146,-2.56646 v -2.69875 c 0,-0.97896 0.55563,-1.87854 1.45521,-2.35479 l 1.27,-0.66146 0.15875,-1.42875 c 0.26458,-2.54 0.82021,-4.86833 1.66688,-6.93208 0.37041,-0.87313 0.66145,-1.53459 0.89958,-2.06375 0.92604,-1.95792 1.24354,-2.98979 1.00542,-5.05354 3.175,1.82562 6.985,2.59291 11.1125,2.27541 0.42333,-0.0265 0.84666,-0.0529 1.29645,-0.0529 10.10709,0 15.02834,3.65125 16.0073,11.87979 l 0.15875,1.4023 1.24354,0.66145 c 0.89958,0.47625 1.45521,1.4023 1.45521,2.38125 v 2.69875 c 0,1.16417 -0.79375,2.19605 -1.93146,2.56646 l -1.42875,0.44979 -0.39688,1.42876 c -1.37583,5.15937 -4.04812,8.51958 -8.14916,10.29229 l -1.64042,0.71437 v 4.8948 c 0,1.79916 1.00542,3.43958 2.59292,4.25979 l 10.18645,5.21229 c 2.09021,1.05833 3.41313,3.14854 3.41313,5.50333 v 2.67229 z m 18.89125,-48.81562 h 26.9875 c 1.48167,0 2.69875,-1.21708 2.69875,-2.69875 0,-1.48167 -1.21708,-2.69875 -2.69875,-2.69875 h -26.9875 c -1.48167,0 -2.69875,1.21708 -2.69875,2.69875 0,1.48167 1.21708,2.69875 2.69875,2.69875 z m 37.7825,0 h 2.69875 c 1.48167,0 2.69875,-1.21708 2.69875,-2.69875 0,-1.48167 -1.21708,-2.69875 -2.69875,-2.69875 h -2.69875 c -1.48166,0 -2.69875,1.21708 -2.69875,2.69875 0,1.48167 1.21709,2.69875 2.69875,2.69875 z m -35.08375,40.48125 h -2.69875 c -1.48167,0 -2.69875,1.21708 -2.69875,2.69875 0,1.48167 1.21708,2.69875 2.69875,2.69875 h 2.69875 c 1.48167,0 2.69875,-1.21708 2.69875,-2.69875 0,-1.48167 -1.21708,-2.69875 -2.69875,-2.69875 z m 16.1925,0 h -5.3975 c -1.48167,0 -2.69875,1.21708 -2.69875,2.69875 0,1.48167 1.21708,2.69875 2.69875,2.69875 h 5.3975 c 1.48167,0 2.69875,-1.21708 2.69875,-2.69875 0,-1.48167 -1.21708,-2.69875 -2.69875,-2.69875 z m 13.49375,0 h -2.69875 c -1.48166,0 -2.69875,1.21708 -2.69875,2.69875 0,1.48167 1.21709,2.69875 2.69875,2.69875 h 2.69875 c 1.48167,0 2.69875,-1.21708 2.69875,-2.69875 0,-1.48167 -1.21708,-2.69875 -2.69875,-2.69875 z m 16.1925,0 h -5.3975 c -1.48166,0 -2.69875,1.21708 -2.69875,2.69875 0,1.48167 1.21709,2.69875 2.69875,2.69875 h 5.3975 c 1.48167,0 2.69875,-1.21708 2.69875,-2.69875 0,-1.48167 -1.21708,-2.69875 -2.69875,-2.69875 z m 8.89,0.79375 c -0.47625,0.50271 -0.79375,1.21708 -0.79375,1.905 0,0.68792 0.29104,1.40229 0.79375,1.905 0.50271,0.47625 1.21709,0.79375 1.905,0.79375 0.71438,0 1.40229,-0.29104 1.905,-0.79375 0.47625,-0.50271 0.79375,-1.21708 0.79375,-1.905 0,-0.68792 -0.29104,-1.40229 -0.79375,-1.905 -1.00541,-1.00542 -2.83104,-1.00542 -3.81,0 z m 1.905,-30.48 h -59.3725 c -1.48167,0 -2.69875,1.21708 -2.69875,2.69875 0,1.48167 1.21708,2.69875 2.69875,2.69875 h 59.3725 c 1.48167,0 2.69875,-1.21708 2.69875,-2.69875 0,-1.48167 -1.21708,-2.69875 -2.69875,-2.69875 z m 0,16.1925 h -59.3725 c -1.48167,0 -2.69875,1.21708 -2.69875,2.69875 0,1.48167 1.21708,2.69875 2.69875,2.69875 h 59.3725 c 1.48167,0 2.69875,-1.21708 2.69875,-2.69875 0,-1.48167 -1.21708,-2.69875 -2.69875,-2.69875 z"
       id="id-card"
       inkscape:connector-curvature="0"
       style="stroke-width:0.26458332" />
    <path
       d="m 998.23134,142.95959 c -0.58208,-0.58209 -1.40229,-0.92605 -2.2225,-0.92605 -0.82021,0 -1.64042,0.34396 -2.24896,0.92605 -0.58208,0.58208 -0.92604,1.40229 -0.92604,2.24895 0,0.84667 0.34396,1.64042 0.92604,2.2225 0.58208,0.58209 1.40229,0.92605 2.24896,0.92605 0.84667,0 1.64042,-0.34396 2.2225,-0.92605 0.58208,-0.58208 0.92604,-1.40229 0.92604,-2.2225 0,-0.8202 -0.34396,-1.66687 -0.92604,-2.24895 z M 1119.8074,56.94354 c -0.5821,-0.58208 -1.4023,-0.92604 -2.249,-0.92604 -0.8202,0 -1.6404,0.34396 -2.2489,0.92604 -0.5821,0.58209 -0.9261,1.40229 -0.9261,2.24896 0,0.84667 0.344,1.64042 0.9261,2.2225 0.582,0.58208 1.4023,0.92604 2.2489,0.92604 0.8467,0 1.6404,-0.34396 2.249,-0.92604 0.5821,-0.58208 0.926,-1.40229 0.926,-2.2225 0,-0.82021 -0.3175,-1.66687 -0.926,-2.24896 z m 12.5148,-56.93833148 c -0.5821,-0.582084 -1.4023,-0.926042 -2.249,-0.926042 h -77.7875 c -1.7462,0 -3.175,1.42875 -3.175,3.17499998 v 9.0487505 l -29.9773,8.043333 c -1.6933,0.449792 -2.6987,2.196042 -2.2489,3.862917 l 15.5575,57.970213 -13.4409,13.44083 c -1.7198,-2.48708 -4.5773,-4.1275 -7.8316,-4.1275 h -30.34774 c -5.23875,0 -9.49855,4.23333 -9.49855,9.47208 v 51.54084 c 0,5.23875 4.2598,9.49854 9.49855,9.49854 h 30.34774 c 4.445,0 8.1756,-3.06917 9.2075,-7.19667 l 3.7571,3.28084 c 2.9104,2.54 6.6145,3.91583 10.4775,3.91583 h 95.4616 c 1.7463,0 3.175,-1.42875 3.175,-3.175 V 2.2541665 c 0,-0.846667 -0.3439,-1.66687498 -0.926,-2.24895798 z M 1014.3445,151.50563 c 0,1.74625 -1.4288,3.175 -3.175,3.175 h -30.34774 c -1.74625,0 -3.175,-1.42875 -3.175,-3.175 V 99.96479 c 0,-1.74625 1.42875,-3.175 3.175,-3.175 h 12.01208 v 36.43313 c 0,1.74625 1.42875,3.175 3.175,3.175 1.74625,0 3.175,-1.42875 3.175,-3.175 V 96.81625 h 12.01206 c 1.7463,0 3.175,1.42875 3.175,3.175 l -0.027,51.51438 z m 9.4985,-126.894171 25.2942,-6.773334 v 11.721042 l -2.1167,0.555625 c -0.8202,0.211667 -1.5081,0.740833 -1.9314,1.481667 -0.4234,0.714375 -0.5292,1.5875 -0.3175,2.407708 1.217,4.524375 -1.4817,9.207503 -6.0325,10.424583 -0.8203,0.21167 -1.5082,0.74083 -1.9315,1.48167 -0.4233,0.74083 -0.5292,1.5875 -0.3175,2.40771 l 12.356,45.64062 h -6.35 l -3.2808,-12.80583 c -0.1058,-0.39688 -0.291,-0.79375 -0.5292,-1.11125 z m 25.2677,19.446871 v 26.69646 l -5.7679,-21.35187 c 2.4342,-1.27 4.3921,-3.12209 5.7679,-5.34459 z m 45.4554,110.6223 h -59.9545 v 0 c -2.3284,0 -4.5773,-0.84667 -6.3236,-2.35479 l -7.62,-6.6675 v -43.73563 l 13.8113,-13.81125 2.5135,9.78958 c 0.3704,1.4023 1.614,2.38125 3.0692,2.38125 h 62.177 c 2.4342,0 4.4186,1.98438 4.4186,4.41855 0,2.43416 -1.9844,4.41854 -4.4186,4.41854 h -31.8822 c -1.7463,0 -3.175,1.42875 -3.175,3.175 0,1.74625 1.4287,3.175 3.175,3.175 h 41.7512 c 2.4342,0 4.4185,1.98437 4.4185,4.41854 0,2.43417 -1.9843,4.41854 -4.4185,4.41854 h -41.7512 c -1.7463,0 -3.175,1.42875 -3.175,3.175 0,1.74625 1.4287,3.175 3.175,3.175 h 35.0043 c 2.4342,0 4.4186,1.98438 4.4186,4.41854 0,2.43417 -1.9844,4.41854 -4.4186,4.41854 h -35.0043 c -1.7463,0 -3.175,1.42875 -3.175,3.175 0,1.74625 1.4287,3.175 3.175,3.175 h 24.2093 c 2.4342,0 4.4186,1.98438 4.4186,4.41855 0,2.43416 -1.9844,4.41854 -4.4186,4.41854 z m 32.3586,0 v 0 h -22.569 c 0.6086,-1.34938 0.9525,-2.8575 0.9525,-4.41854 0,-1.56105 -0.3439,-3.06917 -0.9525,-4.41855 h 1.0054 c 5.9267,0 10.7421,-4.81541 10.7421,-10.74208 0,-1.71979 -0.4233,-3.36021 -1.1377,-4.81542 4.5508,-1.24354 7.911,-5.42395 7.911,-10.37166 0,-2.40771 -0.7937,-4.60375 -2.1166,-6.40292 V 73.40063 c 0,-1.74625 -1.4288,-3.175 -3.175,-3.175 -1.7463,0 -3.175,1.42875 -3.175,3.175 v 35.98333 c -0.7409,-0.15875 -1.5081,-0.26458 -2.3019,-0.26458 h -0.1058 c 0.6085,-1.34938 0.9525,-2.8575 0.9525,-4.41854 0,-5.92667 -4.8154,-10.74209 -10.7421,-10.74209 h -5.08 c 5.3975,-2.30187 9.181,-7.67291 9.181,-13.91708 0,-8.33438 -6.7998,-15.13417 -15.1341,-15.13417 -8.3344,0 -15.1342,6.79979 -15.1342,15.13417 0,6.24417 3.7835,11.61521 9.181,13.91708 h -17.2772 V 33.818959 c 5.662,-1.243542 10.107,-5.688542 11.3506,-11.350625 h 23.786 c 1.2436,5.662083 5.6886,10.107083 11.3506,11.350625 v 9.842501 c 0,1.74625 1.4288,3.175 3.175,3.175 1.7463,0 3.175,-1.42875 3.175,-3.175 V 31.014375 c 0,-1.74625 -1.4287,-3.175 -3.175,-3.175 -4.6831,0 -8.5195,-3.81 -8.5195,-8.519583 0,-1.74625 -1.4288,-3.175 -3.175,-3.175 h -29.4482 c -1.7462,0 -3.175,1.42875 -3.175,3.175 0,4.683125 -3.81,8.519583 -8.5195,8.519583 -1.7463,0 -3.175,1.42875 -3.175,3.175 V 93.95875 h -6.1384 V 5.4027085 h 71.464 z m -35.7452,-65.82834 c -4.8684,0 -8.8107,-3.94229 -8.8107,-8.81062 0,-4.86834 3.9423,-8.81063 8.8107,-8.81063 4.8683,0 8.8106,3.94229 8.8106,8.81063 0,4.86833 -3.9423,8.81062 -8.8106,8.81062 z"
       id="money"
       inkscape:connector-curvature="0"
       style="stroke-width:0.26458332" />
    <path
       d="m 1198.6935,36.387308 c 5.0007,2.19604 11.5359,3.41313 18.4415,3.41313 6.9056,0 13.4673,-1.21709 18.4415,-3.41313 8.0962,-3.57187 9.3133,-8.440207 9.3133,-11.006666 0,-2.566458 -1.2171,-7.434791 -9.3133,-11.006666 -5.0007,-2.196042 -11.5359,-3.413125 -18.4415,-3.413125 -6.9056,0 -13.4408,1.217083 -18.4415,3.413125 -8.0962,3.571875 -9.3133,8.440208 -9.3133,11.006666 0,2.566459 1.1906,7.434796 9.3133,11.006666 z m 18.4415,-17.621249 c 12.1973,0 19.9496,4.339167 19.9496,6.614583 0,2.275417 -7.7788,6.614584 -19.9496,6.614584 -12.1973,0 -19.9496,-4.339167 -19.9496,-6.614584 -0.027,-2.275416 7.7523,-6.614583 19.9496,-6.614583 z m 24.6592,25.717499 c 1.5346,1.50813 1.5875,3.96875 0.079,5.50333 -4.5244,4.68313 -14.0229,7.56709 -24.765,7.56709 -10.7421,0 -20.2142,-2.91042 -24.7386,-7.56709 -1.5081,-1.53458 -1.4552,-4.02166 0.079,-5.50333 1.5346,-1.50812 4.0217,-1.45521 5.5034,0.0794 2.4341,2.51354 9.4456,5.21229 19.1558,5.21229 9.7102,0 16.7217,-2.69875 19.1558,-5.21229 1.5082,-1.53458 3.9952,-1.56104 5.5298,-0.0794 z m 3.5718,41.0898 h 4.3921 c 2.1432,0 3.8894,1.74625 3.8894,3.88937 0,2.14313 -1.7462,3.88938 -3.8894,3.88938 h -4.3921 c -2.1431,0 -3.8893,-1.74625 -3.8893,-3.88938 0,-2.14312 1.7198,-3.88937 3.8893,-3.88937 z m 8.8371,-58.631674 c -0.2116,-0.502708 -0.291,-1.031875 -0.2646,-1.561042 -0.026,-0.899583 0.2382,-1.799166 0.8467,-2.566458 0.979,-1.217083 2.0902,-2.592917 3.1486,-3.889375 0.9525,-1.164167 1.8256,-2.196042 2.6193,-3.148542 0.635,-0.767291 1.2436,-1.481666 1.7727,-2.143125 1.3759,-1.666875 3.8365,-1.905 5.4769,-0.529166 1.6404,1.375833 1.905,3.836458 0.5292,5.476875 -0.5556,0.661458 -1.1642,1.402291 -1.8256,2.169583 -0.2117,0.264583 -0.4498,0.529167 -0.688,0.820208 h 17.3302 c 2.1432,0 3.8894,1.74625 3.8894,3.889375 0,2.143125 -1.7462,3.889375 -3.8894,3.889375 H 1266.03 c 0.1588,0.211667 0.3175,0.396875 0.5027,0.582084 0.6615,0.767291 1.2436,1.508125 1.7992,2.169583 1.3758,1.666879 1.1377,4.127499 -0.5292,5.476879 -0.7144,0.60854 -1.6139,0.89958 -2.4871,0.89958 -1.1377,0 -2.2489,-0.47625 -3.0162,-1.42875 -0.5292,-0.66146 -1.1377,-1.37583 -1.7727,-2.14313 -0.7938,-0.9525 -1.6669,-1.98437 -2.6194,-3.148537 -0.979,-1.190625 -2.0108,-2.460625 -3.1221,-3.862917 -0.2381,-0.291042 -0.4233,-0.608542 -0.5821,-0.9525 v 0 c 0,0 0,0 0,0 0,0 0,0 0,0 0,0 0,0 0,0 0,0 0,0 0,0 0,0 0,0 0,0 0,0.02646 0,0.02646 0,0 0,0.02646 0,0.02646 0,0 0,0.02646 0,0.02646 0,0 0,0.02646 0,0.02646 0,0 0,0.02646 0,0 0,0 0,0 0,0 0,0 z m -42.8096,85.698546 c 0,2.14313 -1.7462,3.88938 -3.8893,3.88938 h -8.89 c -2.1432,0 -3.8894,-1.74625 -3.8894,-3.88938 0,-2.14312 1.7462,-3.88937 3.8894,-3.88937 h 8.89 c 2.1431,0 3.8893,1.74625 3.8893,3.88937 z m 111.9453,9.04875 c 0,2.14313 -1.7463,3.88938 -3.8894,3.88938 -2.1431,0 -3.9158,-1.74625 -3.9158,-3.88938 0,-2.14312 1.7462,-3.88937 3.8893,-3.88937 v 0 c 2.1696,-0.0265 3.9159,1.71979 3.9159,3.88937 z M 1211.3935,98.643768 c 0,2.143132 -1.7462,3.889382 -3.8893,3.889382 h -19.8702 c -2.1432,0 -3.8894,-1.74625 -3.8894,-3.889382 0,-2.14312 1.7462,-3.88937 3.8894,-3.88937 h 19.8702 c 2.1431,0 3.8893,1.74625 3.8893,3.88937 z m 77.179,19.129382 h -22.516 c -1.7992,-8.28146 -9.1811,-14.49917 -17.9917,-14.49917 -8.3079,0 -15.3458,5.52979 -17.6213,13.12333 -0.2645,-0.26458 -0.4497,-0.52916 -0.582,-0.79375 -0.1588,-0.29104 -0.2117,-0.60854 -0.2117,-0.92604 V 88.668978 c 0,-2.14312 -1.7463,-3.88937 -3.8894,-3.88937 -2.1431,0 -3.8894,1.74625 -3.8894,3.88937 v 26.008542 c 0,1.53459 0.344,3.01625 1.0319,4.39209 1.3759,2.77812 3.9688,4.86833 7.0909,5.84729 1.5345,8.59896 9.0752,15.13416 18.0975,15.13416 8.8106,0 16.1925,-6.2177 17.9916,-14.49916 h 22.5161 c 2.1431,0 3.8893,-1.74625 3.8893,-3.88938 0,-2.14312 -1.7462,-3.88937 -3.9158,-3.88937 z m -40.4812,14.49916 c -5.8209,0 -10.5569,-4.70958 -10.6098,-10.53041 0,-0.0529 0,-0.10584 0,-0.15875 0.053,-5.79438 4.7889,-10.50396 10.6098,-10.50396 5.8472,0 10.6097,4.7625 10.6097,10.60979 -0.026,5.84729 -4.7625,10.58333 -10.6097,10.58333 z m 97.5518,-35.480622 c -0.2381,-11.00667 -2.7516,-13.25563 -12.1179,-21.53708 -1.0583,-0.9525 -2.2225,-1.98438 -3.5189,-3.12209 -0.8467,-0.76729 -1.6934,-1.5875 -2.6194,-2.43417 -1.4288,-1.34937 -2.884,-2.75166 -4.4979,-4.1275 -1.2436,-1.05833 -2.4342,-2.03729 -3.5719,-2.98979 -14.5256,-12.22375 -20.5317,-17.30375 -35.5865,-17.30375 h -26.9081 c -2.1431,0 -3.8894,1.74625 -3.8894,3.88938 0,2.14312 1.7463,3.88937 3.8894,3.88937 h 26.9346 c 12.1973,0 16.0867,3.28083 30.5594,15.45167 1.1377,0.9525 2.3283,1.95791 3.5983,3.01625 1.4288,1.19063 2.8046,2.51354 4.1275,3.78354 0.8996,0.87313 1.8521,1.77271 2.7781,2.61938 1.2965,1.16416 2.4607,2.19604 3.5454,3.14854 2.0638,1.82562 3.6778,3.25437 4.9213,4.47146 h -55.4038 c -0.8466,-0.29104 -3.9158,-2.16959 -9.7102,-7.91104 -4.6037,-4.5773 -7.7787,-8.46667 -8.3079,-9.41917 -0.8467,-1.93146 -3.0956,-2.83105 -5.0535,-2.0373 -1.9844,0.82021 -2.9369,3.09563 -2.1167,5.08001 1.1113,2.69875 7.1967,9.12812 10.2394,12.14437 10.0277,9.92188 13.3085,9.92188 14.7108,9.92188 h 60.0075 c 0.1059,1.00541 0.1323,2.16958 0.1588,3.59833 0.053,2.03729 0.026,6.402922 0,9.604382 v 2.2225 c 0,1.66687 -0.026,3.54541 -0.026,5.9002 0,0.60855 -0.2911,1.19063 -0.7673,1.69334 -2.2754,-7.56709 -9.3134,-13.07042 -17.6213,-13.07042 -10.1335,0 -18.3885,8.255 -18.3885,18.38854 0,10.13354 8.255,18.38854 18.3885,18.38854 9.0488,0 16.5894,-6.56166 18.124,-15.16062 4.736,-1.53458 8.0698,-5.58271 8.0698,-10.23938 0,-2.32833 0,-4.20687 0.026,-5.84729 v -2.2225 c 0.053,-3.38666 0.079,-7.646462 0.026,-9.789582 z m -15.6104,24.897292 c 0,5.84729 -4.7625,10.58333 -10.6098,10.58333 -5.8473,0 -10.6098,-4.7625 -10.6098,-10.60979 0,-5.84729 4.7625,-10.60979 10.6098,-10.60979 5.8209,0 10.5834,4.73604 10.6098,10.55688 0,0.0529 0,0.0529 0,0.0794 z m -78.0521,0 c 0,2.14313 -1.7462,3.88938 -3.8893,3.88938 -2.1432,0 -3.9159,-1.74625 -3.9159,-3.88938 0,-2.14312 1.7463,-3.88937 3.8894,-3.88937 v 0 c 2.1696,-0.0265 3.9158,1.71979 3.9158,3.88937 z m -10.1071,-53.551672 c -4.5243,4.68313 -14.0229,7.56709 -24.765,7.56709 -10.742,0 -20.2141,-2.91042 -24.7385,-7.56709 -1.5081,-1.53458 -1.4552,-4.02167 0.079,-5.50333 1.5346,-1.50813 4.0217,-1.45521 5.5033,0.0794 2.4342,2.51354 9.4457,5.21229 19.1559,5.21229 9.7102,0 16.7216,-2.69875 19.1558,-5.21229 1.5081,-1.53459 3.9688,-1.5875 5.5033,-0.0794 1.5875,1.48166 1.614,3.94229 0.1059,5.50333 z"
       id="sell-a-car"
       inkscape:connector-curvature="0"
       style="stroke-width:0.26458332" />
    <path
       d="m 1549.6267,47.50548 -33.3904,-5.55625 -9.6837,-14.52563 c -2.5136,-3.75708 -6.7204,-6.00604 -11.2183,-6.00604 h -49.9005 c -4.5243,0 -8.7048,2.24896 -11.2183,6.00604 l -8.2021,12.30313 -7.62,-7.62 c -2.5135,-2.51354 -5.9796,-3.94229 -9.5514,-3.94229 h -9.2869 c -1.8521,0 -3.3867,1.50812 -3.3867,3.38666 0,1.85209 1.5081,3.38667 3.3867,3.38667 h 9.3133 c 1.7727,0 3.519,0.71437 4.7625,1.98437 l 6.3236,6.32355 -16.1132,3.9952 c -4.5243,1.13771 -7.6729,5.15938 -7.6729,9.81605 v 16.95979 c 0,3.96875 1.5611,7.72583 4.3656,10.53041 2.7782,2.75167 6.6146,4.33917 10.5305,4.33917 h 9.0752 c 1.561,7.69937 8.3873,13.49375 16.5364,13.49375 8.1492,0 14.949,-5.79438 16.5365,-13.49375 h 44.5294 c 1.561,7.69937 8.3872,13.49375 16.5364,13.49375 8.1492,0 14.949,-5.79438 16.5365,-13.49375 h 15.1077 c 2.5664,0 4.8948,-1.42875 6.0325,-3.73063 l 5.4504,-10.92729 c 0.1058,-0.23812 0.2117,-0.47625 0.2646,-0.74083 l 0.3439,-1.50813 c 0.053,-0.23812 0.079,-0.5027 0.079,-0.76729 V 57.48027 c 0,-4.94771 -3.5454,-9.15458 -8.4666,-9.97479 z m -112.977,48.1277 c -5.5827,0 -10.1336,-4.55083 -10.1336,-10.13354 0,-5.58271 4.5509,-10.13354 10.1336,-10.13354 5.5827,0 10.1335,4.55083 10.1335,10.13354 0,5.58271 -4.5508,10.13354 -10.1335,10.13354 z m 77.6023,0 c -5.5828,0 -10.1336,-4.55083 -10.1336,-10.13354 0,-5.58271 4.5508,-10.13354 10.1336,-10.13354 5.5827,0 10.1335,4.55083 10.1335,10.13354 -0.026,5.58271 -4.5773,10.13354 -10.1335,10.13354 z m 37.0945,-24.79145 v 0 l -5.4504,11.2977 h -15.1077 c -1.561,-7.69937 -8.3873,-13.49375 -16.5364,-13.49375 -8.1492,0 -14.949,5.79438 -16.5365,13.49375 h -44.5294 c -1.561,-7.69937 -8.3873,-13.49375 -16.5364,-13.49375 -8.1492,0 -14.949,5.79438 -16.5365,13.49375 h -9.0487 c -2.1432,0 -4.2334,-0.87312 -5.768,-2.38125 -1.5345,-1.53458 -2.3812,-3.57187 -2.3812,-5.76791 V 57.03048 c 0,-1.56105 1.0583,-2.88396 2.5665,-3.28084 l 21.881,-5.47687 c 0.8202,-0.21167 1.5346,-0.71438 1.9844,-1.40229 l 10.4775,-15.74271 c 1.2435,-1.87854 3.3602,-3.01625 5.6091,-3.01625 h 49.9005 c 2.2489,0 4.3656,1.11125 5.6091,3.01625 l 10.4775,15.74271 c 0.5027,0.76729 1.3229,1.29646 2.249,1.45521 l 34.8456,5.82083 c 1.6404,0.26458 2.831,1.66687 2.831,3.33375 z"
       id="trunk-open"
       inkscape:connector-curvature="0"
       style="stroke-width:0.26458332" />
    <path
       d="m 1750.812,47.640605 -22.5954,-3.757083 6.8527,-6.852708 c 1.2435,-1.243542 2.9898,-1.984375 4.7625,-1.984375 h 16.0602 c 1.8521,0 3.3867,-1.508125 3.3867,-3.386667 0,-1.852083 -1.5082,-3.386667 -3.3867,-3.386667 h -16.0602 c -3.5454,0 -7.0379,1.42875 -9.5515,3.942292 l -10.2658,10.265833 -2.6194,-0.449791 -9.6837,-14.525625 c -2.5136,-3.757084 -6.694,-6.006042 -11.2184,-6.006042 h -49.8739 c -4.5244,0 -8.7313,2.248958 -11.2184,6.006042 l -9.7631,14.657916 -20.611,5.212292 c -4.4979,1.137708 -7.6729,5.159375 -7.6729,9.816042 v 16.95979 c 0,3.96875 1.561,7.72584 4.3656,10.53042 2.8046,2.80458 6.5616,4.33917 10.5304,4.33917 h 9.0752 c 1.561,7.69937 8.3873,13.493746 16.5365,13.493746 8.1491,0 14.9489,-5.794376 16.5364,-13.493746 h 44.5294 c 1.561,7.69937 8.3873,13.493746 16.5365,13.493746 8.1491,0 14.9489,-5.794376 16.5364,-13.493746 h 15.1342 c 2.5664,0 4.8948,-1.42875 6.0325,-3.73063 l 5.4504,-10.92729 c 0.1058,-0.23813 0.2117,-0.47625 0.2646,-0.74083 l 0.3439,-1.48167 c 0.053,-0.26458 0.079,-0.52917 0.079,-0.79375 V 57.615397 c -0.027,-4.947708 -3.5718,-9.154583 -8.4931,-9.974792 z m -112.9771,48.127709 c -5.5827,0 -10.1071,-4.55083 -10.1071,-10.10708 0,-5.55625 4.5244,-10.13354 10.1071,-10.13354 5.5827,0 10.1071,4.55083 10.1071,10.10708 0,5.55625 -4.5244,10.13354 -10.1071,10.13354 z m 77.5758,0 c -5.5827,0 -10.107,-4.55083 -10.107,-10.10708 0,-5.55625 4.5508,-10.10709 10.107,-10.10709 5.5827,0 10.1071,4.55084 10.1071,10.10709 0,5.55625 -4.5244,10.10708 -10.1071,10.10708 z m 37.1211,-24.79146 -5.4504,11.29771 h -15.1342 c -1.561,-7.69937 -8.3873,-13.49375 -16.5365,-13.49375 -8.1491,0 -14.9489,5.79438 -16.5364,13.49375 h -44.5029 c -1.5611,-7.69937 -8.3873,-13.49375 -16.5365,-13.49375 -8.1492,0 -14.949,5.79438 -16.5365,13.49375 h -9.0487 c -2.1696,0 -4.2333,-0.84667 -5.7679,-2.38125 -1.5346,-1.53458 -2.3813,-3.57187 -2.3813,-5.76792 V 57.165605 c 0,-1.561041 1.0584,-2.883958 2.54,-3.280833 l 21.8811,-5.476875 c 0.8202,-0.211667 1.5346,-0.714375 1.9843,-1.402292 l 10.4775,-15.742708 c 1.2436,-1.878542 3.3603,-3.01625 5.6092,-3.01625 h 49.9004 c 2.249,0 4.3657,1.11125 5.6092,3.01625 l 10.4775,15.742708 c 0.5292,0.767292 1.3229,1.296459 2.249,1.455209 l 34.8456,5.820833 c 1.6404,0.264583 2.8046,1.666875 2.8046,3.33375 v 13.361457 z"
       id="hood-open"
       inkscape:connector-curvature="0"
       style="stroke-width:0.26458332" />
    <path
       style="stroke-width:1.70330656"
       d="m 1888.3301,162.31322 c -12.0366,-3.94677 -22.076,-12.31195 -25.4301,-21.18945 -3.1501,-8.33726 -2.1737,-20.41819 2.3357,-28.8991 3.4209,-6.43374 3.9844,-9.38751 3.2171,-16.860944 -1.1763,-11.457058 1.6185,-14.37458 16.2363,-16.949473 10.2841,-1.811499 10.4653,-1.938926 10.4653,-7.359006 0,-3.441929 -1.3463,-6.733987 -3.581,-8.75634 -10.8285,-9.799649 -12.7317,-30.893293 -3.0643,-33.961619 5.6621,-1.797052 7.2016,0.944972 3.026,5.389616 -3.6333,3.867521 -3.7421,4.623714 -1.7419,12.102627 3.0367,11.353929 4.9723,13.219461 8.8216,8.502477 2.8234,-3.459742 3.2032,-3.532646 4.2602,-0.817646 0.6382,1.639432 1.7932,2.980785 2.5667,2.980785 2.8585,0 3.3173,-6.446686 0.9387,-13.188456 -2.5037,-7.096541 -2.1342,-8.954527 1.7811,-8.954527 2.9592,0 7.2194,15.008836 5.7947,20.414942 -0.6207,2.355654 -3.5426,5.815978 -6.493,7.689616 -3.893,2.472272 -5.3824,4.719952 -5.43,8.195073 -0.065,4.714248 0.053,4.770695 7.5775,3.642312 10.9871,-1.647626 15.5307,-0.03601 17.7363,6.29124 1.0305,2.955892 1.8736,7.367822 1.8736,9.804277 0,3.021716 1.8965,5.943039 5.9656,9.189899 27.3974,21.860397 8.1223,61.834837 -30.6636,63.593077 -6.5577,0.29727 -13.8443,-0.0894 -16.1925,-0.85938 z m 29.1726,-7.95038 c 8.0633,-2.8449 17.3885,-10.81821 21.2314,-18.15352 5.6759,-10.8343 1.8888,-24.31739 -9.4725,-33.72488 -3.7297,-3.088277 -5.5554,-6.50291 -6.6449,-12.427663 -0.8263,-4.493166 -1.9958,-8.662931 -2.599,-9.266152 -1.0094,-1.009361 -35.2119,3.646634 -42.522,5.788526 -2.8179,0.825652 -3.0506,2.082117 -2.0397,11.016963 0.9785,8.647936 0.6437,10.717326 -2.3493,14.522266 -1.9198,2.44048 -4.2488,7.25377 -5.1757,10.6962 -6.1873,22.97791 22.3633,41.14797 49.5717,31.54826 z m -30.5039,-7.70768 c -8.3297,-4.23286 -12.284,-10.54622 -12.284,-19.61231 0,-5.10649 1.3446,-7.61493 7.2446,-13.51496 10.9602,-10.9602 24.8256,-13.809147 38.0268,-7.81342 25.8821,11.75503 14.7158,42.06773 -16.2256,44.04722 -7.2116,0.46136 -11.1925,-0.27645 -16.7618,-3.10653 z m 27.5124,-5.63992 c 15.3765,-6.42474 17.4483,-23.50201 3.5555,-29.30682 -7.8072,-3.26202 -15.5417,-2.9757 -24.057,0.89053 -8.714,3.95644 -12.8955,9.92989 -12.1728,17.38929 1.081,11.15839 18.384,16.99784 32.6743,11.027 z m -18.825,-45.769867 c -2.2143,-4.938208 -1.0779,-8.090706 2.9162,-8.090706 4.1777,0 5.4127,2.293912 4.0843,7.586544 -1.3462,5.363859 -4.7128,5.606309 -7.0005,0.504162 z m -85.0407,14.704377 c -9.7453,-3.45615 -19.4451,-12.259697 -25.3809,-23.035591 -4.2203,-7.661586 -5.0324,-11.06162 -5.0556,-21.16811 -0.024,-10.309766 0.6457,-13.059264 4.6582,-19.128551 5.2534,-7.946374 13.7224,-12.944196 25.1218,-14.825126 5.1259,-0.845778 9.7825,-3.170304 14.0572,-7.017344 8.515,-7.662811 13.1791,-7.408247 22.5514,1.230836 l 7.5761,6.983459 6.0123,-3.715767 c 3.6305,-2.243819 6.0122,-5.06212 6.0122,-7.114484 0,-4.775496 9.0937,-13.3565072 14.1546,-13.3565072 5.7317,0 20.215,9.9881012 23.0309,15.8828412 2.6889,5.628819 0.2588,13.760427 -4.9443,16.545079 -7.1723,3.838469 -9.0511,0.111124 -3.1242,-6.197804 4.7486,-5.054632 3.1794,-9.364396 -5.5009,-15.108774 -4.6332,-3.066131 -8.2272,-4.264761 -10.8293,-3.611687 -4.3016,1.079649 -7.2641,6.116798 -3.5974,6.116798 1.5119,0 2.2692,2.27384 2.2692,6.813226 0,6.882464 -2.137,8.640281 -5.9132,4.864022 -1.4634,-1.463403 -3.2465,-1.4119 -7.154,0.206645 -2.8625,1.185718 -5.2046,2.673791 -5.2046,3.30683 0,0.633037 3.0659,4.144799 6.8132,7.803916 8.9716,8.7605 9.1991,14.90397 0.8517,22.994638 -4.72,4.574678 -5.9616,7.104579 -5.9616,12.146391 0,3.502514 -0.8135,8.525947 -1.8078,11.163186 -2.4519,6.503417 -11.4717,15.758368 -18.1514,18.624538 -6.979,2.99463 -21.4431,2.80357 -30.4836,-0.40266 z m 31.2962,-7.45612 c 7.6887,-4.687897 12.3193,-12.937695 12.327,-21.961712 0.01,-6.385028 1.0295,-8.584368 7.0263,-15.090153 l 7.02,-7.615757 -15.9287,-15.995189 c -8.7608,-8.797353 -16.7516,-15.995188 -17.7574,-15.995188 -1.0057,0 -4.33,2.580797 -7.3873,5.735107 -4.6205,4.767224 -7.1753,5.901957 -15.1378,6.723765 -19.7068,2.033911 -29.8449,17.833217 -24.2549,37.798767 2.681,9.575414 13.7678,22.438193 22.9259,26.59816 9.4002,4.26997 23.991,4.17737 31.1669,-0.1978 z m -28.1314,-6.227727 c -7.9805,-3.934004 -15.2596,-11.986404 -18.4962,-20.461198 -8.7594,-22.936109 12.2325,-38.072714 34.727,-25.040583 9.9653,5.773359 16.1124,15.527335 17.0711,27.087398 0.7238,8.72784 0.44,9.553442 -5.2338,15.227238 -5.2323,5.232297 -7.0549,5.994095 -14.2601,5.960275 -4.5436,-0.0213 -10.7571,-1.269243 -13.808,-2.77313 z m 24.3324,-7.994873 c 7.444,-10.627754 -0.9307,-27.692109 -16.856,-34.346129 -18.2198,-7.612743 -28.5366,10.401069 -15.6402,27.309081 9.1422,11.98598 26.4106,15.725459 32.4962,7.037048 z m 1.55,-35.351156 c -0.6321,-1.022708 -0.1447,-3.736565 1.0832,-6.030785 2.5461,-4.757473 8.868,-4.94312 9.7552,-0.286469 0.6766,3.550734 -9.046,9.217537 -10.8384,6.317254 z"
       id="cuff"
       inkscape:connector-curvature="0" />
  </g>
</svg>
