<?xml version="1.0" encoding="iso-8859-1"?>
<!-- Generator: Adobe Illustrator 18.0.0, SVG Export Plug-In . SVG Version: 6.00 Build 0)  -->
<!DOCTYPE svg PUBLIC "-//W3C//DTD SVG 1.1//EN" "http://www.w3.org/Graphics/SVG/1.1/DTD/svg11.dtd">
<svg version="1.1" id="Capa_1" xmlns="http://www.w3.org/2000/svg" xmlns:xlink="http://www.w3.org/1999/xlink" x="0px" y="0px"
	 viewBox="0 0 487.83 487.83" style="enable-background:new 0 0 487.83 487.83;" xml:space="preserve">
<g id="XMLID_151_">
	<path id="XMLID_167_" d="M21.936,154.025c-12.027,0-21.77,9.745-21.77,21.765v62.602c0,12.021,9.742,21.766,21.77,21.766h7.224
		c-0.335-5.402-0.824-10.782-0.824-16.243c0-33.919,2.758-63.633,7.598-89.889H21.936z"/>
	<path id="XMLID_166_" d="M465.888,154.025h-14.007c4.838,26.256,7.597,55.97,7.597,89.889c0,5.462-0.49,10.841-0.826,16.243h7.236
		c12.03,0,21.775-9.744,21.775-21.766V175.79C487.664,163.77,477.918,154.025,465.888,154.025z"/>
	<path id="XMLID_152_" d="M243.915,0C105.871,0,60.833,109.203,60.833,243.914c0,134.712,113.703,243.916,183.083,243.916
		c69.378,0,183.065-109.204,183.065-243.916C426.98,109.203,381.961,0,243.915,0z M276.412,61.635
		c10.936,0,19.807,8.871,19.807,19.806c0,10.934-8.871,19.805-19.807,19.805c-10.934,0-19.806-8.871-19.806-19.805
		C256.606,70.506,265.477,61.635,276.412,61.635z M211.412,61.635c10.936,0,19.806,8.871,19.806,19.806
		c0,10.934-8.87,19.805-19.806,19.805c-10.932,0-19.803-8.871-19.803-19.805C191.609,70.506,200.48,61.635,211.412,61.635z
		 M178.914,377.493c-10.931,0-19.802-8.871-19.802-19.806c0-10.934,8.871-19.805,19.802-19.805c10.936,0,19.807,8.871,19.807,19.805
		C198.72,368.622,189.85,377.493,178.914,377.493z M178.914,312.493c-10.931,0-19.802-8.871-19.802-19.805
		c0-10.934,8.871-19.804,19.802-19.804c10.936,0,19.807,8.87,19.807,19.804C198.72,303.622,189.85,312.493,178.914,312.493z
		 M161.111,247.876c-31.104,0-56.34-16.997-56.34-37.962c0-20.96,25.235-37.957,56.34-37.957c31.138,0,56.354,16.997,56.354,37.957
		C217.464,230.879,192.249,247.876,161.111,247.876z M243.915,442.493c-10.934,0-19.806-8.871-19.806-19.805
		c0-10.934,8.871-19.804,19.806-19.804c10.935,0,19.806,8.87,19.806,19.804C263.721,433.622,254.85,442.493,243.915,442.493z
		 M243.915,377.493c-10.934,0-19.806-8.871-19.806-19.806c0-10.934,8.871-19.805,19.806-19.805c10.935,0,19.806,8.871,19.806,19.805
		C263.721,368.622,254.85,377.493,243.915,377.493z M243.915,312.493c-10.934,0-19.806-8.871-19.806-19.805
		c0-10.934,8.871-19.804,19.806-19.804c10.935,0,19.806,8.87,19.806,19.804C263.721,303.622,254.85,312.493,243.915,312.493z
		 M243.915,166.245c-10.934,0-19.806-8.871-19.806-19.805c0-10.934,8.871-19.805,19.806-19.805c10.935,0,19.806,8.871,19.806,19.805
		C263.721,157.374,254.85,166.245,243.915,166.245z M308.915,377.493c-10.934,0-19.805-8.871-19.805-19.806
		c0-10.934,8.871-19.805,19.805-19.805s19.804,8.871,19.804,19.805C328.719,368.622,319.849,377.493,308.915,377.493z
		 M308.915,312.493c-10.934,0-19.805-8.871-19.805-19.805c0-10.934,8.871-19.804,19.805-19.804s19.804,8.87,19.804,19.804
		C328.719,303.622,319.849,312.493,308.915,312.493z M383.054,209.914c0,20.965-25.236,37.962-56.334,37.962
		c-31.139,0-56.352-16.997-56.352-37.962c0-20.96,25.213-37.957,56.352-37.957C357.818,171.957,383.054,188.954,383.054,209.914z"/>
</g>
<g>
</g>
<g>
</g>
<g>
</g>
<g>
</g>
<g>
</g>
<g>
</g>
<g>
</g>
<g>
</g>
<g>
</g>
<g>
</g>
<g>
</g>
<g>
</g>
<g>
</g>
<g>
</g>
<g>
</g>
</svg>
