<?xml version="1.0" encoding="iso-8859-1"?>
<!-- Generator: Adobe Illustrator 18.0.0, SVG Export Plug-In . SVG Version: 6.00 Build 0)  -->
<!DOCTYPE svg PUBLIC "-//W3C//DTD SVG 1.1//EN" "http://www.w3.org/Graphics/SVG/1.1/DTD/svg11.dtd">
<svg xmlns="http://www.w3.org/2000/svg" xmlns:xlink="http://www.w3.org/1999/xlink" version="1.1" id="Capa_1" x="0px" y="0px" viewBox="0 0 290.094 290.094" style="enable-background:new 0 0 290.094 290.094;" xml:space="preserve" width="512px" height="512px">
<path d="M287.804,168.95L216.34,69.576c-4.957-6.893-12.929-10.979-21.42-10.979h-12.011V42.043c0-6.721-5.449-12.17-12.17-12.17  h-5.647l-15.616,42.272c-0.685,1.854-2.452,3.085-4.429,3.085c-1.976,0-3.744-1.231-4.429-3.085l-15.616-42.272h-5.647  c-6.721,0-12.17,5.449-12.17,12.17v16.554H95.175c-8.491,0-16.463,4.086-21.42,10.979L2.29,168.95  c-3.708,5.157-2.827,12.298,2.023,16.399l13.14,11.11c4.83,4.084,11.983,3.787,16.458-0.683l38.508-38.458l-5.373,57.454  c-0.319,3.41,0.814,6.797,3.12,9.328c1.646,1.807,3.784,3.046,6.116,3.615c-4.01,1.991-6.772,6.115-6.772,10.895v9.441  c0,6.721,5.449,12.17,12.17,12.17h126.735c6.721,0,12.17-5.449,12.17-12.17v-9.441c0-4.78-2.763-8.905-6.772-10.895  c2.332-0.569,4.47-1.809,6.116-3.615c2.306-2.532,3.439-5.918,3.12-9.328l-5.373-57.454l38.508,38.458  c4.475,4.47,11.628,4.766,16.458,0.683l13.14-11.11C290.632,181.248,291.513,174.107,287.804,168.95z M119.757,177.884  l-17.476,29.841c-1.396,2.383-3.903,3.711-6.479,3.711c-1.288,0-2.592-0.331-3.783-1.029c-3.574-2.093-4.775-6.688-2.682-10.262  l17.476-29.841c2.094-3.574,6.688-4.775,10.262-2.682C120.649,169.715,121.85,174.31,119.757,177.884z M198.075,210.407  c-1.191,0.697-2.495,1.029-3.783,1.029c-2.575,0-5.083-1.328-6.479-3.711l-17.476-29.841c-2.094-3.574-0.893-8.169,2.682-10.262  c3.573-2.094,8.168-0.893,10.262,2.682l17.476,29.841C202.85,203.719,201.649,208.314,198.075,210.407z" fill="#ffffff"/>
<g>
</g>
<g>
</g>
<g>
</g>
<g>
</g>
<g>
</g>
<g>
</g>
<g>
</g>
<g>
</g>
<g>
</g>
<g>
</g>
<g>
</g>
<g>
</g>
<g>
</g>
<g>
</g>
<g>
</g>
</svg>
