<?xml version="1.0" encoding="iso-8859-1"?>
<!-- Generator: Adobe Illustrator 19.0.0, SVG Export Plug-In . SVG Version: 6.00 Build 0)  -->
<svg version="1.1" id="Capa_1" xmlns="http://www.w3.org/2000/svg" xmlns:xlink="http://www.w3.org/1999/xlink" x="0px" y="0px"
	 viewBox="0 0 512 512" style="enable-background:new 0 0 512 512;" xml:space="preserve">
<g>
	<g>
		<path d="M45,31C20.147,31,0,51.147,0,76c0,24.853,20.147,45,45,45h407V31H45z"/>
	</g>
</g>
<g>
	<g>
		<path d="M407,271c-24.814,0-45,20.186-45,45c0,24.814,20.186,45,45,45h105v-90H407z M422,331h-30v-30h30V331z"/>
	</g>
</g>
<g>
	<g>
		<path d="M407,241h105v-90c-4.484,0-467,0-467,0c-16.948,0-32.426-5.865-45-15.383C0,142.463,0,395.549,0,406
			c0,41.42,33.578,75,75,75h437v-90H407c-41.353,0-75-33.647-75-75C332,274.647,365.647,241,407,241z"/>
	</g>
</g>
<g>
</g>
<g>
</g>
<g>
</g>
<g>
</g>
<g>
</g>
<g>
</g>
<g>
</g>
<g>
</g>
<g>
</g>
<g>
</g>
<g>
</g>
<g>
</g>
<g>
</g>
<g>
</g>
<g>
</g>
</svg>
