<?xml version="1.0" encoding="iso-8859-1"?>
<!-- Generator: Adobe Illustrator 19.0.0, SVG Export Plug-In . SVG Version: 6.00 Build 0)  -->
<svg version="1.1" id="Capa_1" xmlns="http://www.w3.org/2000/svg" xmlns:xlink="http://www.w3.org/1999/xlink" x="0px" y="0px"
	 viewBox="0 0 512 512" style="enable-background:new 0 0 512 512;" xml:space="preserve">
<path style="fill:#455A64;" d="M496.341,291.415c-10.079-9.703-23.698-14.847-37.675-14.229
	c-51.755,0-147.413-16.341-183.787-60.139c-16.058-18.918-29.888-39.619-41.216-61.696c-2.487-5.34-8.832-7.653-14.173-5.166
	c-0.134,0.062-0.267,0.128-0.398,0.195c-28.575,13.15-59.638,20.017-91.093,20.139c-31.459-0.171-62.52-7.043-91.115-20.16
	c-5.244-2.684-11.671-0.61-14.356,4.634c-1.45,2.831-1.56,6.162-0.3,9.083c2.517,5.845-3.008,18.688-8.363,31.104
	C5.916,210.742,1.199,227.752,0,245.186c0.424,22.29,4.015,44.407,10.667,65.685v40.981c0,5.891,4.776,10.667,10.667,10.667H160
	c5.891,0,10.667-4.776,10.667-10.667v-11.989c36.732,16.84,76.972,24.61,117.333,22.656h128c31.097-1.726,61.59-9.304,89.877-22.336
	c3.742-1.762,6.128-5.528,6.123-9.664C511.663,316.024,506.103,302.137,496.341,291.415z"/>
<g>
	<path style="fill:#FFC107;" d="M224,234.519c-5.891,0.011-10.675-4.757-10.686-10.648c-0.005-2.84,1.123-5.565,3.134-7.571
		l21.333-21.333c4.092-4.237,10.845-4.355,15.083-0.262c4.237,4.092,4.355,10.845,0.262,15.083
		c-0.086,0.089-0.173,0.176-0.262,0.262l-21.333,21.333C229.535,233.385,226.827,234.513,224,234.519z"/>
	<path style="fill:#FFC107;" d="M266.667,277.186c-5.891,0.011-10.675-4.757-10.686-10.648c-0.005-2.84,1.123-5.565,3.134-7.571
		l21.333-21.333c4.237-4.092,10.99-3.975,15.083,0.262c3.992,4.134,3.992,10.687,0,14.82l-21.333,21.333
		C272.202,276.052,269.493,277.18,266.667,277.186z"/>
</g>
<g>
</g>
<g>
</g>
<g>
</g>
<g>
</g>
<g>
</g>
<g>
</g>
<g>
</g>
<g>
</g>
<g>
</g>
<g>
</g>
<g>
</g>
<g>
</g>
<g>
</g>
<g>
</g>
<g>
</g>
</svg>
