<?xml version="1.0" encoding="iso-8859-1"?>
<!-- Generator: Adobe Illustrator 19.0.0, SVG Export Plug-In . SVG Version: 6.00 Build 0)  -->
<svg version="1.1" id="Capa_1" xmlns="http://www.w3.org/2000/svg" xmlns:xlink="http://www.w3.org/1999/xlink" x="0px" y="0px"
	 viewBox="0 0 512 512" style="enable-background:new 0 0 512 512;" xml:space="preserve">
<path style="fill:#CFD8DC;" d="M256,74.667c-103.659,0-170.667,54.421-170.667,138.667V256c-0.004,5.891,4.768,10.67,10.659,10.674
	c1.209,0.001,2.409-0.204,3.549-0.605c51.2-17.984,155.733-20.715,156.203-20.736c1.045,0,105.6,2.731,156.715,20.736
	c5.557,1.956,11.647-0.963,13.603-6.52c0.401-1.14,0.606-2.34,0.605-3.549v-42.667C426.667,129.088,359.659,74.667,256,74.667z"/>
<path style="fill:#37474F;" d="M419.541,245.931c-54.315-19.2-158.848-21.824-163.797-21.931
	c-4.437,0.107-108.971,2.816-163.285,21.931c-4.272,1.504-7.129,5.541-7.125,10.069v29.227c0,5.257,3.83,9.729,9.024,10.539
	c53.448,8.707,107.491,13.244,161.643,13.568c54.151-0.324,108.195-4.861,161.643-13.568c5.194-0.81,9.024-5.282,9.024-10.539V256
	C426.67,251.471,423.813,247.434,419.541,245.931z"/>
<path style="fill:#CFD8DC;" d="M469.333,266.667c-9.697,0.733-19.342,2.037-28.885,3.904c-7.467,1.195-16.213,2.624-26.112,4.117
	C361.982,283.225,309.044,287.676,256,288c-53.065-0.325-106.025-4.775-158.4-13.312c-9.856-1.493-18.603-2.923-26.069-4.117
	c-9.536-1.866-19.174-3.17-28.864-3.904C24.363,266.667,0,272.192,0,320c0,59.2,126.805,117.333,256,117.333S512,379.2,512,320
	C512,272.192,487.637,266.667,469.333,266.667z"/>
<path style="fill:#455A64;" d="M392.149,344.896c-5.056-6.144-25.216-14.229-136.149-14.229s-131.093,8.085-136.149,14.229
	c-4.1,3.845-5.649,9.691-3.989,15.061c6.357,21.739,58.752,34.709,140.139,34.709s133.781-12.971,140.117-34.709
	C397.782,354.591,396.242,348.745,392.149,344.896z"/>
<g>
</g>
<g>
</g>
<g>
</g>
<g>
</g>
<g>
</g>
<g>
</g>
<g>
</g>
<g>
</g>
<g>
</g>
<g>
</g>
<g>
</g>
<g>
</g>
<g>
</g>
<g>
</g>
<g>
</g>
</svg>
