<?xml version="1.0"?>
<svg xmlns="http://www.w3.org/2000/svg" height="512px" viewBox="0 -3 505.08697 505" width="512px"><path d="m49.933594 297.710938c7.484375-10.730469 6.347656-25.25-2.714844-34.6875-9.058594-9.4375-23.523438-11.160157-34.546875-4.117188-11.027344 7.042969-15.542969 20.890625-10.789063 33.078125 4.75 12.191406 17.449219 19.324219 30.332032 17.046875 7.179687-1.253906 13.5625-5.332031 17.71875-11.320312zm0 0" fill="#ffffff"/><path d="m78.359375 342.859375c-3.617187-6.320313-9.613281-10.929687-16.648437-12.800781-2.332032-.613282-4.730469-.921875-7.140626-.914063-4.816406-.015625-9.546874 1.246094-13.714843 3.65625-8.492188 4.902344-13.726563 13.960938-13.730469 23.765625-.003906 9.804688 5.226562 18.863282 13.714844 23.769532 8.488281 4.90625 18.949218 4.910156 27.445312.007812.464844-.265625.832032-.628906 1.277344-.914062h.066406c12.121094-7.964844 15.945313-23.988282 8.730469-36.570313zm0 0" fill="#ffffff"/><path d="m105.6875 389.953125c-.816406 0-1.632812.039063-2.441406.109375-14.753906 1.328125-25.746094 14.199219-24.75 28.980469s13.617187 26.058593 28.417968 25.394531c14.796876-.667969 26.355469-13.03125 26.023438-27.839844-.335938-14.8125-12.4375-26.644531-27.25-26.644531zm0 0" fill="#ffffff"/><path d="m105.613281 39.773438c-12.859375.015624-23.984375 8.960937-26.753906 21.519531-2.769531 12.558593 3.554687 25.355469 15.214844 30.777343 11.660156 5.425782 25.523437 2.019532 33.34375-8.1875 7.820312-10.210937 7.496093-24.480468-.777344-34.328124-5.203125-6.222657-12.910156-9.808594-21.027344-9.78125zm0 0" fill="#ffffff"/><path d="m472.902344 175.589844c-14.332032 2.578125-24.097656 15.980468-22.160156 30.410156 1.9375 14.433594 14.890624 24.785156 29.394531 23.488281 14.503906-1.292969 25.417969-13.773437 24.773437-28.320312-.648437-14.546875-12.628906-26.007813-27.191406-26.007813-1.617188 0-3.226562.140625-4.816406.429688zm0 0" fill="#ffffff"/><path d="m426.757812 141.714844c7.15625 12.511718 22.832032 17.261718 35.730469 10.828125.554688-.277344 1.152344-.449219 1.691407-.769531 9.632812-5.535157 14.972656-16.339844 13.523437-27.355469-1.445313-11.015625-9.398437-20.070313-20.136719-22.929688-2.328125-.613281-4.730468-.921875-7.140625-.914062-4.8125-.011719-9.542969 1.25-13.710937 3.65625-.46875.265625-.832032.632812-1.28125.914062l-.019532.109375c-12.054687 7.964844-15.847656 23.929688-8.65625 36.460938zm0 0" fill="#ffffff"/><path d="m401.871094 94.511719c13.035156-1.140625 23.453125-11.328125 24.875-24.339844 1.425781-13.007813-6.539063-25.210937-19.019532-29.144531-12.480468-3.933594-26.003906 1.496094-32.292968 12.972656-6.292969 11.472656-3.605469 25.792969 6.421875 34.203125 5.558593 4.695313 12.769531 6.964844 20.015625 6.308594zm0 0" fill="#ffffff"/><path d="m40.902344 151.773438c.546875.3125 1.140625.492187 1.707031.769531 12.949219 6.464843 28.699219 1.703125 35.890625-10.859375 7.195312-12.558594 3.332031-28.550782-8.800781-36.445313h-.054688c-.445312-.292969-.820312-.660156-1.289062-.917969-4.167969-2.40625-8.898438-3.667968-13.714844-3.65625-2.410156-.007812-4.808594.300782-7.140625.914063-10.734375 2.859375-18.6875 11.914063-20.136719 22.929687-1.445312 11.019532 3.894531 21.820313 13.527344 27.355469zm0 0" fill="#ffffff"/><path d="m22.695312 229.605469c9.738282 1.898437 19.738282-1.605469 26.15625-9.164063 6.421876-7.5625 8.261719-17.996094 4.8125-27.296875-3.453124-9.296875-11.652343-16.011719-21.449218-17.554687-1.589844-.289063-3.203125-.429688-4.820313-.429688-14.21875.019532-26.070312 10.902344-27.292969 25.070313-1.222656 14.167969 8.585938 26.921875 22.59375 29.375zm0 0" fill="#ffffff"/><path d="m401.871094 390.0625c-.816406-.070312-1.632813-.109375-2.441406-.109375-14.992188-.007813-27.246094 11.960937-27.585938 26.949219-.339844 14.988281 11.355469 27.5 26.332031 28.171875 14.972657.675781 27.746094-10.738281 28.75-25.695313 1.003907-14.960937-10.125-27.980468-25.054687-29.316406zm0 0" fill="#ffffff"/><path d="m340.117188 1.722656c-6.847657-2.519531-14.421876-2.191406-21.027344.914063-5.050782 2.371093-9.246094 6.238281-12.023438 11.078125h-63.652344c-5.046874 0-9.140624 4.09375-9.140624 9.144531s4.09375 9.144531 9.140624 9.144531h60.34375c2.207032 13.136719 13.546876 22.78125 26.871094 22.847656 13.324219.066407 24.757813-9.46875 27.09375-22.585937 2.332032-13.117187-5.113281-26.011719-17.640625-30.542969zm0 0" fill="#ffffff"/><path d="m464.214844 332.800781c-4.15625-2.402343-8.871094-3.664062-13.667969-3.65625-2.410156-.007812-4.8125.300781-7.140625.914063-10.425781 2.769531-18.25 11.40625-19.976562 22.054687-1.726563 10.648438 2.96875 21.316407 11.984374 27.234375.449219.292969.824219.660156 1.289063.914063 8.492187 4.902343 18.953125 4.898437 27.445313-.007813 8.488281-4.90625 13.714843-13.964844 13.714843-23.769531-.003906-9.808594-5.238281-18.863281-13.730469-23.765625zm0 0" fill="#ffffff"/><path d="m482.417969 254.96875c-12.886719-2.269531-25.582031 4.878906-30.324219 17.074219-4.742188 12.195312-.207031 26.039062 10.828125 33.070312s25.5 5.289063 34.546875-4.164062c9.050781-9.453125 10.164062-23.980469 2.660156-34.699219-4.175781-5.960938-10.542968-10.019531-17.710937-11.28125zm0 0" fill="#ffffff"/><path d="m200.160156 18.113281c-3.957031-10.824219-14.242187-18.0312498-25.765625-18.0546872-10.9375.015625-20.820312 6.5273442-25.148437 16.5703122-4.328125 10.046875-2.277344 21.703125 5.222656 29.664063 7.5 7.960937 19.011719 10.707031 29.296875 6.984375 14.234375-5.179688 21.574219-20.917969 16.394531-35.152344zm0 0" fill="#ffffff"/><path d="m279.984375 470.859375c0 15.148437-12.277344 27.429687-27.425781 27.429687-15.148438 0-27.429688-12.28125-27.429688-27.429687s12.28125-27.429687 27.429688-27.429687c15.148437 0 27.425781 12.28125 27.425781 27.429687zm0 0" fill="#ffffff"/><path d="m225.128906 13.714844h-7.3125c1.882813 5.902344 2.53125 12.125 1.910156 18.289062h5.402344c2.386719.023438 4.675782-.929687 6.34375-2.636718 1.789063-1.691407 2.804688-4.046876 2.800782-6.507813 0-5.050781-4.09375-9.144531-9.144532-9.144531zm0 0" fill="#ffffff"/><path d="m183.765625 431.296875c-12.292969-4.480469-26.039063.347656-32.835937 11.53125-6.792969 11.183594-4.742188 25.605469 4.902343 34.453125 9.644531 8.84375 24.191407 9.644531 34.746094 1.914062 10.558594-7.734374 14.183594-21.84375 8.660156-33.707031-3.078125-6.589843-8.640625-11.695312-15.472656-14.191406zm0 0" fill="#ffffff"/><path d="m330.710938 429.644531c-8.945313.003907-17.324219 4.375-22.453126 11.703125-5.128906 7.328125-6.363281 16.699219-3.300781 25.105469 4.761719 13.074219 18.566407 20.511719 32.105469 17.296875 13.542969-3.214844 22.527344-16.0625 20.90625-29.886719-1.625-13.820312-13.339844-24.238281-27.257812-24.230469zm0 0" fill="#ffffff"/></svg>
