<?xml version="1.0" encoding="iso-8859-1"?>
<!-- Generator: Adobe Illustrator 19.0.0, SVG Export Plug-In . SVG Version: 6.00 Build 0)  -->
<svg version="1.1" id="Capa_1" xmlns="http://www.w3.org/2000/svg" xmlns:xlink="http://www.w3.org/1999/xlink" x="0px" y="0px"
	 viewBox="0 0 512 512" style="enable-background:new 0 0 512 512;" xml:space="preserve">
<path style="fill:#2196F3;" d="M434.88,228.267c-20.772-4.679-40.85-12.029-59.733-21.867L262.4,146.347
	c-26.028-13.464-57.812-8.194-78.101,12.949C169.71,174.599,149.1,182.666,128,181.333c-22.934,1.755-45.236-8.028-59.477-26.091
	c-6.9-10.362-18.527-16.584-30.976-16.576h-26.88C4.776,138.667,0,143.442,0,149.333v85.333c0,5.891,4.776,10.667,10.667,10.667
	c41.237,0,74.667,33.429,74.667,74.667c0,5.891,4.776,10.667,10.667,10.667h256c3.65-0.001,7.046-1.868,9.003-4.949
	c23.317-36.715,57.259-76.331,71.424-76.331c5.891-0.029,10.643-4.828,10.614-10.719c-0.024-4.906-3.392-9.163-8.161-10.316V228.267
	z"/>
<g>
	<path style="fill:#607D8B;" d="M434.837,228.267c-0.79-0.185-1.599-0.278-2.411-0.277c-32.171,0-76.587,66.005-89.429,86.229
		c-3.158,4.973-1.686,11.565,3.288,14.722c1.709,1.085,3.691,1.661,5.715,1.662h149.333c5.866,0,10.631-4.737,10.667-10.603
		C509.623,275.632,478.142,238.207,434.837,228.267z"/>
	<path style="fill:#607D8B;" d="M10.667,224C4.776,224,0,228.776,0,234.667V320c0,5.891,4.776,10.667,10.667,10.667H96
		c5.891,0,10.667-4.776,10.667-10.667C106.667,266.981,63.686,224,10.667,224z"/>
</g>
<g>
	<path style="fill:#FAFAFA;" d="M245.333,213.333c-5.891-0.003-10.664-4.781-10.661-10.672c0.001-2.101,0.623-4.155,1.786-5.904
		l21.333-32c3.27-4.901,9.893-6.224,14.795-2.955s6.224,9.893,2.955,14.795l-21.333,32
		C252.227,211.559,248.897,213.336,245.333,213.333z"/>
	<path style="fill:#FAFAFA;" d="M288,234.667c-5.891-0.003-10.664-4.781-10.661-10.672c0.001-2.101,0.623-4.155,1.786-5.904
		l21.333-32c3.27-4.901,9.893-6.224,14.795-2.955c4.901,3.27,6.224,9.893,2.955,14.795l-21.333,32
		C294.893,232.893,291.564,234.67,288,234.667z"/>
	<path style="fill:#FAFAFA;" d="M330.667,256c-5.891-0.003-10.664-4.781-10.661-10.672c0.001-2.101,0.623-4.155,1.786-5.904
		l21.333-32c3.27-4.901,9.893-6.224,14.795-2.955s6.224,9.893,2.955,14.795l0,0l-21.333,32
		C337.56,254.226,334.23,256.003,330.667,256z"/>
</g>
<path style="fill:#CFD8DC;" d="M512,309.333H0v32c0,17.673,14.327,32,32,32h448c17.673,0,32-14.327,32-32V309.333z"/>
<g>
</g>
<g>
</g>
<g>
</g>
<g>
</g>
<g>
</g>
<g>
</g>
<g>
</g>
<g>
</g>
<g>
</g>
<g>
</g>
<g>
</g>
<g>
</g>
<g>
</g>
<g>
</g>
<g>
</g>
</svg>
