<?xml version="1.0" encoding="iso-8859-1"?>
<!-- Generator: Adobe Illustrator 19.0.0, SVG Export Plug-In . SVG Version: 6.00 Build 0)  -->
<svg version="1.1" id="Capa_1" xmlns="http://www.w3.org/2000/svg" xmlns:xlink="http://www.w3.org/1999/xlink" x="0px" y="0px"
	 viewBox="0 0 512.036 512.036" style="enable-background:new 0 0 512.036 512.036;" xml:space="preserve">
<path style="fill:#F44336;" d="M413.668,308.097c-16.171-6.4-32.363-12.8-46.549-19.2c-20.651-9.408-38.208,5.995-53.696,19.605
	c-22.443,19.755-37.483,31.061-60.864,14.293c-14.763-16.576-186.816-209.387-202.667-224c-4.343-3.98-11.091-3.686-15.071,0.658
	c-0.04,0.044-0.08,0.088-0.119,0.132C13.661,129.951,1.642,165.652,0.036,202.561c-0.435,15.168,3.063,30.19,10.155,43.605
	c7.629,11.771,11.526,25.572,11.179,39.595v119.616c0,5.891,4.776,10.667,10.667,10.667h42.667c5.891,0,10.667-4.776,10.667-10.667
	V302.785c-0.005-4.488,1.439-8.857,4.117-12.459c1.745-1.68,4.138-2.514,6.549-2.283c8.32,0,35.605,27.733,53.675,46.229
	c37.611,38.4,80.235,81.771,116.992,81.771h160.341c14.187-0.448,84.992-4.651,84.992-42.816
	C512.036,348.31,474.66,332.246,413.668,308.097z"/>
<g>
</g>
<g>
</g>
<g>
</g>
<g>
</g>
<g>
</g>
<g>
</g>
<g>
</g>
<g>
</g>
<g>
</g>
<g>
</g>
<g>
</g>
<g>
</g>
<g>
</g>
<g>
</g>
<g>
</g>
</svg>
