<?xml version="1.0" encoding="iso-8859-1"?>
<!-- Generator: Adobe Illustrator 19.0.0, SVG Export Plug-In . SVG Version: 6.00 Build 0)  -->
<svg version="1.1" id="Capa_1" xmlns="http://www.w3.org/2000/svg" xmlns:xlink="http://www.w3.org/1999/xlink" x="0px" y="0px"
	 viewBox="0 0 512 512" style="enable-background:new 0 0 512 512;" xml:space="preserve">
<path style="fill:#546E7A;" d="M501.333,298.698c-5.891,0-10.667,4.776-10.667,10.667c0,14.507-48.235,30.635-138.667,32H10.667
	C4.776,341.365,0,346.141,0,352.032v21.333c0,17.673,14.327,32,32,32h320c37.525,0,160-3.84,160-53.333v-42.667
	C512,303.474,507.224,298.698,501.333,298.698z"/>
<path style="fill:#CFD8DC;" d="M440.107,267.061c-10.325-2.773-21.12-5.504-31.765-8.171c-24.718-4.866-48.832-12.413-71.915-22.507
	c-32.96-21.163-94.613-87.765-102.016-121.323c-1.148-5.344-6.15-8.955-11.584-8.363l-192,21.333
	c-5.855,0.648-10.076,5.92-9.428,11.776c0.086,0.777,0.257,1.543,0.511,2.283c4.676,12.719,8.057,25.877,10.091,39.275
	c-0.614,11.384-3.732,22.492-9.131,32.533C6.445,250.11-1.173,289.697,0.64,329.418c-0.321,18.014,13.987,32.895,32,33.28h320.427
	c3.65-0.001,7.046-1.868,9.003-4.949c17.771-28.032,52.501-69.717,75.264-69.717c5.891,0.009,10.674-4.76,10.682-10.651
	C448.023,272.546,444.777,268.311,440.107,267.061z"/>
<circle style="fill:#F44336;" cx="117.333" cy="245.365" r="53.333"/>
<g>
	<path style="fill:#455A64;" d="M341.333,298.698c-5.891,0-10.667-4.776-10.666-10.667c0-1.659,0.387-3.295,1.13-4.778
		l10.667-21.333c2.633-5.272,9.042-7.412,14.315-4.779c5.273,2.633,7.412,9.042,4.779,14.315l0,0l-10.667,21.333
		C349.085,296.413,345.383,298.702,341.333,298.698z"/>
	<path style="fill:#455A64;" d="M288,277.365c-5.891-0.003-10.664-4.781-10.661-10.672c0.001-2.101,0.623-4.155,1.786-5.904
		l21.333-32c3.27-4.901,9.893-6.224,14.795-2.955c4.901,3.27,6.224,9.893,2.955,14.795l-21.333,32
		C294.893,275.591,291.564,277.368,288,277.365z"/>
	<path style="fill:#455A64;" d="M245.333,234.698c-5.891,0.007-10.673-4.763-10.68-10.654c-0.004-3.571,1.778-6.907,4.749-8.888
		l32-21.333c4.901-3.27,11.525-1.947,14.795,2.955c3.27,4.901,1.947,11.525-2.955,14.795l-32,21.333
		C249.493,234.073,247.437,234.697,245.333,234.698z"/>
	<path style="fill:#455A64;" d="M202.667,192.032c-5.891-0.007-10.661-4.787-10.655-10.678c0.005-4.888,3.332-9.147,8.074-10.335
		l42.667-10.667c5.747-1.293,11.455,2.317,12.748,8.065c1.251,5.56-2.089,11.122-7.586,12.629l-42.667,10.667
		C204.404,191.923,203.537,192.031,202.667,192.032z"/>
	<path style="fill:#455A64;" d="M440.192,267.082c-0.932-0.253-1.893-0.382-2.859-0.384c-40.683,0-84.843,66.325-93.291,79.616
		c-3.158,4.973-1.687,11.565,3.286,14.723c1.746,1.109,3.776,1.686,5.844,1.661h0.171C425.728,361.589,512,351.456,512,309.365
		C512,290.613,486.763,280.032,440.192,267.082z"/>
</g>
<g>
</g>
<g>
</g>
<g>
</g>
<g>
</g>
<g>
</g>
<g>
</g>
<g>
</g>
<g>
</g>
<g>
</g>
<g>
</g>
<g>
</g>
<g>
</g>
<g>
</g>
<g>
</g>
<g>
</g>
</svg>
