<?xml version="1.0" encoding="iso-8859-1"?>
<!-- Generator: Adobe Illustrator 19.0.0, SVG Export Plug-In . SVG Version: 6.00 Build 0)  -->
<svg version="1.1" id="Capa_1" xmlns="http://www.w3.org/2000/svg" xmlns:xlink="http://www.w3.org/1999/xlink" x="0px" y="0px"
	 viewBox="0 0 512.008 512.008" style="enable-background:new 0 0 512.008 512.008;" xml:space="preserve">
<g>
	<path style="fill:#D81B60;" d="M258.715,93.363c-0.76-2.975-2.766-5.479-5.504-6.869c-32.896-16.661-85.205-52.011-85.589-75.989
		c-0.091-5.89-4.939-10.592-10.83-10.501c-1.792,0.028-3.548,0.506-5.106,1.392C115.397,21.96,85.339,43.486,85.339,99.059
		c-2.243,37.435,26.285,69.601,63.721,71.844c3.649,0.219,7.31,0.142,10.946-0.228c49.493,0,95.253-65.813,97.173-68.629
		C258.919,99.508,259.479,96.343,258.715,93.363z"/>
	<path style="fill:#D81B60;" d="M360.325,1.395c-5.122-2.911-11.633-1.119-14.544,4.003c-0.886,1.558-1.364,3.314-1.392,5.106
		c-0.384,23.957-52.715,59.328-85.589,76.011c-5.254,2.665-7.353,9.084-4.689,14.338c0.213,0.42,0.454,0.826,0.721,1.214
		c1.92,2.795,47.68,68.608,97.173,68.608c37.309,3.802,70.636-23.361,74.438-60.67c0.371-3.637,0.447-7.297,0.228-10.946
		C426.672,43.486,396.613,21.96,360.325,1.395z"/>
</g>
<path style="fill:#AD1457;" d="M263.621,106.675h-15.232c-5.891,0-10.667-4.776-10.667-10.667c0-5.891,4.776-10.667,10.667-10.667
	h15.232c5.891,0,10.667,4.776,10.667,10.667C274.288,101.899,269.512,106.675,263.621,106.675z"/>
<path style="fill:#D81B60;" d="M415.451,380.638l-10.667-32c-1.761-5.272-7.276-8.307-12.672-6.976
	c-44.146,13.411-89.972,20.486-136.107,21.013c-46.135-0.527-91.961-7.602-136.107-21.013c-5.396-1.331-10.911,1.704-12.672,6.976
	l-10.667,32c-1.869,5.587,1.144,11.631,6.731,13.5c0.27,0.09,0.544,0.17,0.821,0.239c82.965,20.523,130.56,59.52,130.56,106.965
	c0,5.891,4.776,10.667,10.667,10.667h21.333c5.891,0,10.667-4.776,10.667-10.667c0-47.445,47.595-86.443,130.56-106.987
	c5.718-1.416,9.206-7.199,7.791-12.918c-0.069-0.277-0.148-0.551-0.239-0.821L415.451,380.638z"/>
<g>
</g>
<g>
</g>
<g>
</g>
<g>
</g>
<g>
</g>
<g>
</g>
<g>
</g>
<g>
</g>
<g>
</g>
<g>
</g>
<g>
</g>
<g>
</g>
<g>
</g>
<g>
</g>
<g>
</g>
</svg>
