<?xml version="1.0" encoding="iso-8859-1"?>
<!-- Generator: Adobe Illustrator 19.0.0, SVG Export Plug-In . SVG Version: 6.00 Build 0)  -->
<svg version="1.1" id="Capa_1" xmlns="http://www.w3.org/2000/svg" xmlns:xlink="http://www.w3.org/1999/xlink" x="0px" y="0px"
	 viewBox="0 0 512 512" style="enable-background:new 0 0 512 512;" xml:space="preserve">
<path style="fill:#455A64;" d="M426.667,0H85.333C55.878,0,32,23.878,32,53.333V96c0,5.891,4.776,10.667,10.667,10.667h426.667
	c5.891,0,10.667-4.776,10.667-10.667V53.333C480,23.878,456.122,0,426.667,0z"/>
<path style="fill:#4CAF50;" d="M479.723,93.653c-1.096-4.859-5.408-8.313-10.389-8.32H42.667c-4.981,0.007-9.294,3.461-10.389,8.32
	C20.228,147.013,12.995,201.347,10.667,256c0,65.173,20.544,239.211,21.333,246.592c0.641,5.395,5.234,9.446,10.667,9.408h192
	c5.558,0.02,10.2-4.232,10.667-9.771L256,373.781l10.667,128.448c0.467,5.539,5.108,9.79,10.667,9.771h192
	c5.433,0.038,10.026-4.013,10.667-9.408c0.875-7.381,21.333-181.333,21.333-246.592C499.005,201.347,491.772,147.013,479.723,93.653
	z"/>
<g>
	<path style="fill:#37474F;" d="M192,234.667c-5.776,0.002-10.505-4.594-10.667-10.368c-1.678-23.621-5.389-47.054-11.093-70.037
		c-8.853-41.323-16.512-77.035-2.709-97.408c5.234-7.675,13.474-12.775,22.677-14.037c5.791-0.882,11.237,2.988,12.309,8.747
		c0.991,5.807-2.914,11.318-8.721,12.309c-0.001,0-0.003,0.001-0.004,0.001c-3.444,0.301-6.573,2.124-8.533,4.971
		c-8.704,12.8-0.939,49.067,5.909,80.96c5.978,24.251,9.825,48.978,11.499,73.899c0.167,5.889-4.471,10.798-10.36,10.965
		c-0.003,0-0.006,0-0.008,0H192z"/>
	<path style="fill:#37474F;" d="M320,234.667h-0.299c-5.889-0.163-10.531-5.068-10.368-10.957c0-0.003,0-0.006,0-0.008
		c1.686-24.929,5.548-49.663,11.541-73.92c6.848-32,14.635-68.117,5.909-80.96c-1.96-2.847-5.09-4.67-8.533-4.971
		c-5.808-0.988-9.714-6.497-8.726-12.305c0-0.001,0-0.003,0.001-0.004c1.083-5.752,6.522-9.617,12.309-8.747
		c9.204,1.262,17.443,6.362,22.677,14.037c13.803,20.373,6.144,56.064-2.709,97.408c-5.704,22.984-9.415,46.416-11.093,70.037
		C330.559,230.076,325.801,234.692,320,234.667z"/>
</g>
<g>
</g>
<g>
</g>
<g>
</g>
<g>
</g>
<g>
</g>
<g>
</g>
<g>
</g>
<g>
</g>
<g>
</g>
<g>
</g>
<g>
</g>
<g>
</g>
<g>
</g>
<g>
</g>
<g>
</g>
</svg>
