<?xml version="1.0" encoding="iso-8859-1"?>
<!-- Generator: Adobe Illustrator 19.0.0, SVG Export Plug-In . SVG Version: 6.00 Build 0)  -->
<svg version="1.1" id="Capa_1" xmlns="http://www.w3.org/2000/svg" xmlns:xlink="http://www.w3.org/1999/xlink" x="0px" y="0px"
	 viewBox="0 0 512 512" style="enable-background:new 0 0 512 512;" xml:space="preserve">
<path style="fill:#455A64;" d="M444.16,91.552c-9,70.01-14.482,140.427-16.427,210.987c-0.427,10.027-0.64,17.92-0.853,22.827
	c-0.213,3.627-0.213,5.547-0.213,5.76c-0.196,4.908-3.719,9.048-8.533,10.027l-157.44,32c-0.698,0.167-1.416,0.239-2.133,0.213
	c-0.718,0.046-1.439-0.026-2.133-0.213l-162.56-32c-4.852-0.913-8.407-5.091-8.533-10.027c0-0.213,0-2.133-0.213-5.333
	c-0.213-4.907-0.427-13.013-0.853-23.253C82.322,231.98,76.84,161.562,67.84,91.552c-2.792-14.283,4.513-28.63,17.707-34.773
	C139.009,32.4,197.251,20.3,256,21.366C314.749,20.3,372.991,32.4,426.453,56.779C439.647,62.922,446.952,77.269,444.16,91.552z"/>
<path style="fill:#37474F;" d="M427.733,302.539c-0.427,10.027-0.64,17.92-0.853,22.827
	c-29.013-16.853-117.333-25.387-171.093-26.667c-36.907,1.067-138.027,7.68-170.667,27.093c-0.213-4.907-0.427-13.013-0.853-23.253
	c50.347-21.547,158.08-24.747,171.52-25.173C278.827,278.006,378.88,281.632,427.733,302.539z"/>
<path style="fill:#607D8B;" d="M469.333,320.032c-9.548,0.726-19.044,2.023-28.437,3.883
	C379.845,334.78,318.006,340.617,256,341.366c-62.006-0.749-123.845-6.585-184.896-17.451c-9.393-1.86-18.889-3.156-28.437-3.883
	C24.363,320.032,0,325.558,0,373.366c0,59.2,126.805,117.333,256,117.333s256-58.133,256-117.333
	C512,325.558,487.637,320.032,469.333,320.032z"/>
<path style="fill:#ECEFF1;" d="M392.149,398.262c-5.056-6.144-25.216-14.229-136.149-14.229s-131.093,8.085-136.149,14.229
	c-4.1,3.845-5.649,9.691-3.989,15.061c6.357,21.739,58.752,34.709,140.139,34.709s133.781-12.971,140.117-34.709
	C397.782,407.957,396.242,402.111,392.149,398.262z"/>
<g>
</g>
<g>
</g>
<g>
</g>
<g>
</g>
<g>
</g>
<g>
</g>
<g>
</g>
<g>
</g>
<g>
</g>
<g>
</g>
<g>
</g>
<g>
</g>
<g>
</g>
<g>
</g>
<g>
</g>
</svg>
