<?xml version="1.0" encoding="iso-8859-1"?>
<!-- Generator: Adobe Illustrator 19.0.0, SVG Export Plug-In . SVG Version: 6.00 Build 0)  -->
<svg version="1.1" id="Capa_1" xmlns="http://www.w3.org/2000/svg" xmlns:xlink="http://www.w3.org/1999/xlink" x="0px" y="0px"
	 viewBox="0 0 512.039 512.039" style="enable-background:new 0 0 512.039 512.039;" xml:space="preserve">
<path style="fill:#F44336;" d="M210.238,173.791c-27.733-27.733-107.264-61.568-152.192-79.253
	c-8.681-3.402-18.413-2.865-26.667,1.472c-8.145,4.231-14.053,11.789-16.192,20.715C4.738,162.406-0.353,209.149,0.02,256.01
	c-0.378,46.881,4.712,93.647,15.168,139.349c2.137,8.926,8.035,16.489,16.171,20.736c8.271,4.297,18,4.795,26.667,1.365
	c44.971-17.707,124.544-51.584,152.213-79.253c1.994-1.999,3.114-4.707,3.115-7.531V181.343
	C213.358,178.512,212.238,175.795,210.238,173.791z"/>
<path style="fill:#E57373;" d="M96.02,320.01c-5.891,0.295-10.905-4.242-11.2-10.133s4.242-10.905,10.133-11.2
	c22.4-2.24,86.4-15.04,86.4-42.667s-64-40.427-86.421-42.667c-5.864-0.567-10.157-5.781-9.59-11.644
	c0.004-0.037,0.007-0.074,0.011-0.11c0.65-5.865,5.88-10.127,11.755-9.579c10.795,1.109,105.579,12.245,105.579,64
	s-94.784,62.848-105.579,64H96.02z"/>
<path style="fill:#F44336;" d="M496.852,116.66c-2.156-8.902-8.062-16.433-16.192-20.651c-8.259-4.313-17.988-4.811-26.645-1.365
	c-44.928,17.685-124.459,51.499-152.213,79.253c-1.973,1.978-3.092,4.651-3.115,7.445v149.333c-0.005,2.831,1.115,5.548,3.115,7.552
	c27.733,27.733,107.221,61.547,152.213,79.275c3.774,1.436,7.781,2.159,11.819,2.133c14.729,0.042,27.557-10.041,30.997-24.363
	c10.456-45.674,15.554-92.41,15.189-139.264C512.399,209.128,507.308,162.362,496.852,116.66z"/>
<path style="fill:#E57373;" d="M416.02,320.01h-1.088c-10.795-1.088-105.579-12.224-105.579-64s94.784-62.848,105.579-64
	c5.891-0.589,11.144,3.709,11.733,9.6c0.589,5.891-3.709,11.144-9.6,11.733c-22.421,2.304-86.421,15.104-86.421,42.667
	s64,40.427,86.421,42.667c5.891,0.295,10.428,5.309,10.133,11.2c-0.295,5.891-5.309,10.428-11.2,10.133H416.02z"/>
<path style="fill:#D32F2F;" d="M307.497,175.306c-1.993-2.903-5.29-4.635-8.811-4.629h-85.333c-3.521-0.006-6.818,1.727-8.811,4.629
	c-30.936,49.356-30.936,112.052,0,161.408c1.993,2.903,5.29,4.635,8.811,4.629h85.333c3.513-0.001,6.801-1.733,8.789-4.629
	c30.936-49.356,30.936-112.052,0-161.408H307.497z"/>
<g>
</g>
<g>
</g>
<g>
</g>
<g>
</g>
<g>
</g>
<g>
</g>
<g>
</g>
<g>
</g>
<g>
</g>
<g>
</g>
<g>
</g>
<g>
</g>
<g>
</g>
<g>
</g>
<g>
</g>
</svg>
